<svg width="378" height="227" viewBox="0 0 378 227" fill="none" xmlns="http://www.w3.org/2000/svg">
<rect width="294.4" height="160.4" rx="10.4062" fill="url(#paint0_linear_1077_133)"/>
<g filter="url(#filter0_d_1077_133)">
<rect x="27.7637" y="27" width="294.4" height="175.2" rx="10.4062" fill="white" fill-opacity="0.95" shape-rendering="crispEdges"/>
</g>
<g filter="url(#filter1_d_1077_133)">
<rect x="47.7637" y="53" width="106.243" height="124.404" rx="9.0806" fill="white"/>
</g>
<rect x="56.8442" y="62.0806" width="89.3531" height="67.5597" rx="7.26448" fill="#F7F7F7"/>
<rect x="56.8442" y="133.999" width="89.3531" height="8.35415" rx="4.17708" fill="#F6F6F6"/>
<rect x="57.2075" y="146.712" width="66.1068" height="8.35415" rx="4.17708" fill="#F6F6F6"/>
<rect x="57.2075" y="160.514" width="42.134" height="8.35415" rx="4.17708" fill="#F6F6F6"/>
<g filter="url(#filter2_d_1077_133)">
<rect x="164.764" y="80" width="186" height="73" rx="10" fill="white"/>
</g>
<g filter="url(#filter3_d_1077_133)">
<rect x="181.764" y="95" width="44.6155" height="43.8719" rx="7.43592" fill="#FF477E"/>
</g>
<path d="M204.072 112.288V122.327M209.091 117.308H199.053" stroke="white" stroke-width="1.48718" stroke-linecap="round" stroke-linejoin="round"/>
<g filter="url(#filter4_d_1077_133)">
<rect x="235.764" y="94" width="44.6155" height="43.8719" rx="7.43592" fill="#FF477E"/>
</g>
<path d="M261.684 118.394C261.41 118.394 261.139 118.449 260.887 118.557C260.634 118.665 260.407 118.822 260.217 119.021L255.511 116.373C255.602 116.03 255.602 115.67 255.511 115.328L260.217 112.68C260.56 113.035 261.021 113.253 261.513 113.294C262.005 113.334 262.494 113.193 262.89 112.898C263.286 112.603 263.561 112.174 263.663 111.691C263.765 111.208 263.687 110.704 263.444 110.274C263.202 109.845 262.811 109.518 262.344 109.356C261.878 109.193 261.369 109.207 260.912 109.393C260.455 109.579 260.081 109.926 259.861 110.368C259.641 110.81 259.59 111.317 259.717 111.794L255.011 114.442C254.73 114.149 254.368 113.946 253.971 113.861C253.574 113.775 253.16 113.811 252.783 113.962C252.406 114.114 252.084 114.374 251.856 114.711C251.629 115.047 251.507 115.444 251.507 115.85C251.507 116.256 251.629 116.653 251.856 116.99C252.084 117.326 252.406 117.587 252.783 117.738C253.16 117.89 253.574 117.925 253.971 117.84C254.368 117.754 254.73 117.552 255.011 117.259L259.717 119.907C259.608 120.318 259.63 120.752 259.781 121.15C259.931 121.547 260.203 121.888 260.556 122.123C260.91 122.359 261.329 122.478 261.754 122.463C262.178 122.449 262.588 122.301 262.925 122.042C263.262 121.783 263.509 121.425 263.632 121.018C263.755 120.611 263.748 120.176 263.611 119.774C263.474 119.372 263.215 119.022 262.869 118.775C262.523 118.527 262.109 118.394 261.684 118.394Z" fill="white"/>
<g filter="url(#filter5_d_1077_133)">
<rect x="289.764" y="94" width="44.6155" height="43.8719" rx="7.43592" fill="#FF477E"/>
</g>
<path d="M319.812 111C319.558 111 319.307 111.062 319.082 111.181C318.858 111.3 318.665 111.472 318.522 111.682C318.378 111.892 318.289 112.134 318.26 112.387C318.232 112.64 318.265 112.896 318.358 113.133L315.07 116.421C314.704 116.276 314.296 116.276 313.929 116.421L311.579 114.07C311.672 113.833 311.706 113.577 311.678 113.324C311.649 113.071 311.559 112.829 311.416 112.619C311.273 112.409 311.08 112.237 310.855 112.118C310.63 111.999 310.379 111.936 310.125 111.936C309.87 111.936 309.62 111.999 309.395 112.118C309.17 112.237 308.977 112.409 308.834 112.619C308.69 112.829 308.601 113.071 308.572 113.324C308.544 113.577 308.577 113.833 308.671 114.07L304.758 117.983C304.423 117.852 304.054 117.84 303.712 117.949C303.37 118.058 303.076 118.282 302.88 118.582C302.683 118.882 302.596 119.241 302.633 119.598C302.67 119.955 302.828 120.289 303.082 120.543C303.336 120.796 303.669 120.955 304.027 120.992C304.384 121.029 304.742 120.942 305.043 120.745C305.343 120.548 305.567 120.254 305.676 119.912C305.785 119.57 305.773 119.201 305.642 118.867L309.554 114.954C309.921 115.099 310.329 115.099 310.695 114.954L313.046 117.305C312.952 117.542 312.919 117.798 312.947 118.051C312.976 118.304 313.065 118.546 313.209 118.756C313.352 118.966 313.545 119.138 313.77 119.257C313.995 119.376 314.245 119.439 314.5 119.439C314.754 119.439 315.005 119.376 315.23 119.257C315.455 119.138 315.648 118.966 315.791 118.756C315.934 118.546 316.024 118.304 316.053 118.051C316.081 117.798 316.047 117.542 315.954 117.305L319.242 114.017C319.456 114.101 319.686 114.137 319.915 114.122C320.145 114.107 320.368 114.041 320.569 113.93C320.77 113.819 320.944 113.665 321.079 113.479C321.214 113.292 321.306 113.079 321.349 112.853C321.391 112.627 321.384 112.394 321.326 112.172C321.269 111.949 321.163 111.742 321.016 111.565C320.869 111.388 320.685 111.246 320.477 111.148C320.269 111.05 320.042 111 319.812 111Z" fill="white"/>
<defs>
<filter id="filter0_d_1077_133" x="7.76367" y="11" width="334.4" height="215.2" filterUnits="userSpaceOnUse" color-interpolation-filters="sRGB">
<feFlood flood-opacity="0" result="BackgroundImageFix"/>
<feColorMatrix in="SourceAlpha" type="matrix" values="0 0 0 0 0 0 0 0 0 0 0 0 0 0 0 0 0 0 127 0" result="hardAlpha"/>
<feOffset dy="4"/>
<feGaussianBlur stdDeviation="10"/>
<feComposite in2="hardAlpha" operator="out"/>
<feColorMatrix type="matrix" values="0 0 0 0 0 0 0 0 0 0 0 0 0 0 0 0 0 0 0.1 0"/>
<feBlend mode="normal" in2="BackgroundImageFix" result="effect1_dropShadow_1077_133"/>
<feBlend mode="normal" in="SourceGraphic" in2="effect1_dropShadow_1077_133" result="shape"/>
</filter>
<filter id="filter1_d_1077_133" x="29.6025" y="38.471" width="142.566" height="160.727" filterUnits="userSpaceOnUse" color-interpolation-filters="sRGB">
<feFlood flood-opacity="0" result="BackgroundImageFix"/>
<feColorMatrix in="SourceAlpha" type="matrix" values="0 0 0 0 0 0 0 0 0 0 0 0 0 0 0 0 0 0 127 0" result="hardAlpha"/>
<feOffset dy="3.63224"/>
<feGaussianBlur stdDeviation="9.0806"/>
<feComposite in2="hardAlpha" operator="out"/>
<feColorMatrix type="matrix" values="0 0 0 0 0 0 0 0 0 0 0 0 0 0 0 0 0 0 0.1 0"/>
<feBlend mode="normal" in2="BackgroundImageFix" result="effect1_dropShadow_1077_133"/>
<feBlend mode="normal" in="SourceGraphic" in2="effect1_dropShadow_1077_133" result="shape"/>
</filter>
<filter id="filter2_d_1077_133" x="144.764" y="64" width="226" height="113" filterUnits="userSpaceOnUse" color-interpolation-filters="sRGB">
<feFlood flood-opacity="0" result="BackgroundImageFix"/>
<feColorMatrix in="SourceAlpha" type="matrix" values="0 0 0 0 0 0 0 0 0 0 0 0 0 0 0 0 0 0 127 0" result="hardAlpha"/>
<feOffset dy="4"/>
<feGaussianBlur stdDeviation="10"/>
<feComposite in2="hardAlpha" operator="out"/>
<feColorMatrix type="matrix" values="0 0 0 0 0 0 0 0 0 0 0 0 0 0 0 0 0 0 0.1 0"/>
<feBlend mode="normal" in2="BackgroundImageFix" result="effect1_dropShadow_1077_133"/>
<feBlend mode="normal" in="SourceGraphic" in2="effect1_dropShadow_1077_133" result="shape"/>
</filter>
<filter id="filter3_d_1077_133" x="156.058" y="72.7213" width="96.0281" height="95.2844" filterUnits="userSpaceOnUse" color-interpolation-filters="sRGB">
<feFlood flood-opacity="0" result="BackgroundImageFix"/>
<feColorMatrix in="SourceAlpha" type="matrix" values="0 0 0 0 0 0 0 0 0 0 0 0 0 0 0 0 0 0 127 0" result="hardAlpha"/>
<feOffset dy="3.4275"/>
<feGaussianBlur stdDeviation="12.8531"/>
<feComposite in2="hardAlpha" operator="out"/>
<feColorMatrix type="matrix" values="0 0 0 0 0 0 0 0 0 0 0 0 0 0 0 0 0 0 0.15 0"/>
<feBlend mode="normal" in2="BackgroundImageFix" result="effect1_dropShadow_1077_133"/>
<feBlend mode="normal" in="SourceGraphic" in2="effect1_dropShadow_1077_133" result="shape"/>
</filter>
<filter id="filter4_d_1077_133" x="192.92" y="54.5838" width="130.303" height="129.559" filterUnits="userSpaceOnUse" color-interpolation-filters="sRGB">
<feFlood flood-opacity="0" result="BackgroundImageFix"/>
<feColorMatrix in="SourceAlpha" type="matrix" values="0 0 0 0 0 0 0 0 0 0 0 0 0 0 0 0 0 0 127 0" result="hardAlpha"/>
<feOffset dy="3.4275"/>
<feGaussianBlur stdDeviation="21.4218"/>
<feComposite in2="hardAlpha" operator="out"/>
<feColorMatrix type="matrix" values="0 0 0 0 0 0 0 0 0 0 0 0 0 0 0 0 0 0 0.15 0"/>
<feBlend mode="normal" in2="BackgroundImageFix" result="effect1_dropShadow_1077_133"/>
<feBlend mode="normal" in="SourceGraphic" in2="effect1_dropShadow_1077_133" result="shape"/>
</filter>
<filter id="filter5_d_1077_133" x="246.92" y="54.5838" width="130.303" height="129.559" filterUnits="userSpaceOnUse" color-interpolation-filters="sRGB">
<feFlood flood-opacity="0" result="BackgroundImageFix"/>
<feColorMatrix in="SourceAlpha" type="matrix" values="0 0 0 0 0 0 0 0 0 0 0 0 0 0 0 0 0 0 127 0" result="hardAlpha"/>
<feOffset dy="3.4275"/>
<feGaussianBlur stdDeviation="21.4218"/>
<feComposite in2="hardAlpha" operator="out"/>
<feColorMatrix type="matrix" values="0 0 0 0 0 0 0 0 0 0 0 0 0 0 0 0 0 0 0.15 0"/>
<feBlend mode="normal" in2="BackgroundImageFix" result="effect1_dropShadow_1077_133"/>
<feBlend mode="normal" in="SourceGraphic" in2="effect1_dropShadow_1077_133" result="shape"/>
</filter>
<linearGradient id="paint0_linear_1077_133" x1="-0.236326" y1="11.5" x2="162.683" y2="140.908" gradientUnits="userSpaceOnUse">
<stop stop-color="#FF477E"/>
<stop offset="1" stop-color="#FF93DD"/>
</linearGradient>
</defs>
</svg>
