<svg width="396" height="275" viewBox="0 0 396 275" fill="none" xmlns="http://www.w3.org/2000/svg">
<rect x="74.248" width="297.752" height="199.944" rx="10.5213" fill="url(#paint0_linear_1114_20)"/>
<g filter="url(#filter0_d_1114_20)">
<rect x="34" y="34.6223" width="297.752" height="199.944" rx="10.5213" fill="white" fill-opacity="0.95" shape-rendering="crispEdges"/>
</g>
<g filter="url(#filter1_d_1114_20)">
<rect x="53.042" y="52.3662" width="128.102" height="167.485" rx="10.5213" fill="url(#paint1_linear_1114_20)"/>
</g>
<path d="M70.8274 146.926V133.293H76.4167C77.4165 133.293 78.3188 133.462 79.1238 133.8C79.9417 134.124 80.6428 134.592 81.2271 135.202C81.8243 135.799 82.2787 136.513 82.5903 137.344C82.9019 138.175 83.0577 139.097 83.0577 140.109C83.0577 141.109 82.9019 142.031 82.5903 142.875C82.2787 143.706 81.8308 144.426 81.2465 145.037C80.6623 145.634 79.9612 146.101 79.1432 146.439C78.3253 146.763 77.4165 146.926 76.4167 146.926H70.8274ZM73.7487 144.803L73.4371 144.297H76.3194C76.9036 144.297 77.4294 144.199 77.8968 144.004C78.3642 143.797 78.7602 143.518 79.0848 143.167C79.4224 142.804 79.6756 142.362 79.8443 141.843C80.0131 141.323 80.0975 140.746 80.0975 140.109C80.0975 139.473 80.0131 138.902 79.8443 138.396C79.6756 137.876 79.4224 137.435 79.0848 137.071C78.7602 136.708 78.3642 136.429 77.8968 136.234C77.4294 136.026 76.9036 135.922 76.3194 135.922H73.3786L73.7487 135.455V144.803ZM89.1665 147.12C88.3096 147.12 87.5371 146.887 86.849 146.419C86.1608 145.952 85.6155 145.316 85.2131 144.511C84.8106 143.706 84.6093 142.784 84.6093 141.745C84.6093 140.707 84.8106 139.791 85.2131 138.999C85.6285 138.194 86.1868 137.565 86.8879 137.11C87.589 136.643 88.3875 136.409 89.2833 136.409C89.7897 136.409 90.2506 136.487 90.6661 136.643C91.0945 136.786 91.4645 136.987 91.7761 137.247C92.1007 137.506 92.3734 137.805 92.5941 138.142C92.8148 138.48 92.9706 138.844 93.0615 139.233L92.4773 139.136V136.623H95.2232V146.926H92.4383V144.452L93.0615 144.394C92.9576 144.757 92.7889 145.102 92.5552 145.426C92.3214 145.751 92.0293 146.043 91.6788 146.303C91.3412 146.549 90.9582 146.75 90.5297 146.906C90.1013 147.049 89.6469 147.12 89.1665 147.12ZM89.926 144.725C90.4454 144.725 90.8998 144.602 91.2893 144.355C91.6788 144.108 91.9774 143.764 92.1851 143.323C92.4058 142.868 92.5162 142.343 92.5162 141.745C92.5162 141.161 92.4058 140.648 92.1851 140.207C91.9774 139.765 91.6788 139.421 91.2893 139.175C90.8998 138.915 90.4454 138.785 89.926 138.785C89.4197 138.785 88.9717 138.915 88.5822 139.175C88.2057 139.421 87.9071 139.765 87.6864 140.207C87.4657 140.648 87.3553 141.161 87.3553 141.745C87.3553 142.343 87.4657 142.868 87.6864 143.323C87.9071 143.764 88.2057 144.108 88.5822 144.355C88.9717 144.602 89.4197 144.725 89.926 144.725ZM98.7943 146.926V135.903C98.7943 135.267 98.9371 134.689 99.2228 134.17C99.5084 133.65 99.8979 133.241 100.391 132.943C100.898 132.644 101.488 132.495 102.163 132.495C102.618 132.495 103.046 132.573 103.449 132.728C103.851 132.871 104.195 133.072 104.481 133.332L103.663 135.358C103.494 135.254 103.319 135.169 103.137 135.104C102.968 135.026 102.813 134.988 102.67 134.988C102.423 134.988 102.215 135.033 102.047 135.124C101.891 135.202 101.774 135.325 101.696 135.494C101.618 135.65 101.579 135.851 101.579 136.098V146.926H100.197C99.8979 146.926 99.6317 146.926 99.398 146.926C99.1643 146.926 98.9631 146.926 98.7943 146.926ZM97.2558 139.214V136.877H103.799V139.214H97.2558ZM106.692 146.926V134.014H109.457V146.926H106.692ZM104.764 139.097V136.623H111.56V139.097H104.764ZM117.124 147.12C116.267 147.12 115.494 146.887 114.806 146.419C114.118 145.952 113.573 145.316 113.17 144.511C112.768 143.706 112.567 142.784 112.567 141.745C112.567 140.707 112.768 139.791 113.17 138.999C113.586 138.194 114.144 137.565 114.845 137.11C115.546 136.643 116.345 136.409 117.241 136.409C117.747 136.409 118.208 136.487 118.623 136.643C119.052 136.786 119.422 136.987 119.733 137.247C120.058 137.506 120.331 137.805 120.551 138.142C120.772 138.48 120.928 138.844 121.019 139.233L120.435 139.136V136.623H123.181V146.926H120.396V144.452L121.019 144.394C120.915 144.757 120.746 145.102 120.512 145.426C120.279 145.751 119.987 146.043 119.636 146.303C119.299 146.549 118.916 146.75 118.487 146.906C118.059 147.049 117.604 147.12 117.124 147.12ZM117.883 144.725C118.403 144.725 118.857 144.602 119.247 144.355C119.636 144.108 119.935 143.764 120.142 143.323C120.363 142.868 120.474 142.343 120.474 141.745C120.474 141.161 120.363 140.648 120.142 140.207C119.935 139.765 119.636 139.421 119.247 139.175C118.857 138.915 118.403 138.785 117.883 138.785C117.377 138.785 116.929 138.915 116.54 139.175C116.163 139.421 115.864 139.765 115.644 140.207C115.423 140.648 115.313 141.161 115.313 141.745C115.313 142.343 115.423 142.868 115.644 143.323C115.864 143.764 116.163 144.108 116.54 144.355C116.929 144.602 117.377 144.725 117.883 144.725ZM125.953 146.926V136.623H128.621L128.719 139.934L128.251 139.253C128.407 138.72 128.66 138.24 129.011 137.811C129.361 137.37 129.77 137.026 130.238 136.779C130.718 136.533 131.218 136.409 131.737 136.409C131.958 136.409 132.172 136.429 132.38 136.468C132.588 136.507 132.763 136.552 132.906 136.604L132.166 139.642C132.01 139.564 131.822 139.499 131.601 139.447C131.38 139.382 131.153 139.35 130.919 139.35C130.608 139.35 130.316 139.408 130.043 139.525C129.783 139.629 129.556 139.785 129.361 139.993C129.167 140.187 129.011 140.421 128.894 140.694C128.79 140.966 128.738 141.265 128.738 141.59V146.926H125.953ZM70.8274 172.926V159.293H80.0391V161.864H73.6708V170.355H80.1754V172.926H70.8274ZM72.1907 167.22V164.727H79.1043V167.22H72.1907ZM86.7362 173.12C85.8404 173.12 85.0354 172.893 84.3213 172.439C83.6072 171.971 83.0425 171.342 82.627 170.55C82.2245 169.745 82.0233 168.816 82.0233 167.765C82.0233 166.739 82.2245 165.824 82.627 165.019C83.0425 164.214 83.6007 163.578 84.3018 163.11C85.0159 162.643 85.8274 162.409 86.7362 162.409C87.2166 162.409 87.6775 162.487 88.119 162.643C88.5734 162.786 88.9759 162.987 89.3264 163.247C89.6899 163.506 89.9821 163.798 90.2028 164.123C90.4235 164.435 90.5468 164.766 90.5728 165.116L89.8717 165.233V158.514H92.6372V172.926H90.0275L89.9107 170.55L90.456 170.608C90.43 170.933 90.3131 171.244 90.1054 171.543C89.8977 171.842 89.6185 172.114 89.268 172.361C88.9304 172.595 88.5409 172.783 88.0995 172.926C87.671 173.056 87.2166 173.12 86.7362 173.12ZM87.3594 170.822C87.8788 170.822 88.3332 170.693 88.7227 170.433C89.1122 170.173 89.4173 169.816 89.638 169.362C89.8587 168.907 89.9691 168.375 89.9691 167.765C89.9691 167.168 89.8587 166.642 89.638 166.187C89.4173 165.72 89.1122 165.363 88.7227 165.116C88.3332 164.857 87.8788 164.727 87.3594 164.727C86.8401 164.727 86.3857 164.857 85.9962 165.116C85.6197 165.363 85.321 165.72 85.1003 166.187C84.8926 166.642 84.7887 167.168 84.7887 167.765C84.7887 168.375 84.8926 168.907 85.1003 169.362C85.321 169.816 85.6197 170.173 85.9962 170.433C86.3857 170.693 86.8401 170.822 87.3594 170.822ZM95.5669 172.926V162.623H98.3324V172.926H95.5669ZM96.9302 160.501C96.3979 160.501 95.9824 160.371 95.6838 160.111C95.3852 159.851 95.2359 159.481 95.2359 159.001C95.2359 158.56 95.3852 158.203 95.6838 157.93C95.9954 157.644 96.4109 157.501 96.9302 157.501C97.4625 157.501 97.878 157.638 98.1766 157.91C98.4752 158.17 98.6245 158.534 98.6245 159.001C98.6245 159.455 98.4687 159.819 98.1571 160.092C97.8585 160.364 97.4495 160.501 96.9302 160.501ZM102.279 172.926V160.014H105.045V172.926H102.279ZM100.351 165.097V162.623H107.148V165.097H100.351ZM70.8274 198.926V185.293H76.7478C77.6566 185.293 78.4227 185.43 79.0459 185.702C79.6821 185.962 80.1624 186.345 80.487 186.851C80.8116 187.358 80.9739 187.961 80.9739 188.662C80.9739 189.441 80.7791 190.091 80.3896 190.61C80.0001 191.129 79.4419 191.486 78.7148 191.681L78.6953 191.292C79.2926 191.434 79.8184 191.668 80.2728 191.993C80.7272 192.317 81.0778 192.72 81.3244 193.2C81.5711 193.68 81.6945 194.226 81.6945 194.836C81.6945 195.511 81.5841 196.108 81.3634 196.628C81.1427 197.134 80.8181 197.556 80.3896 197.894C79.9612 198.231 79.4548 198.491 78.8706 198.673C78.2993 198.841 77.6566 198.926 76.9426 198.926H70.8274ZM73.6318 196.394H76.8257C77.2412 196.394 77.5917 196.336 77.8774 196.219C78.176 196.089 78.4032 195.894 78.559 195.634C78.7148 195.375 78.7927 195.07 78.7927 194.719C78.7927 194.382 78.7083 194.096 78.5395 193.862C78.3707 193.629 78.1305 193.453 77.8189 193.336C77.5203 193.207 77.1568 193.142 76.7283 193.142H73.6318V196.394ZM73.6318 190.824H76.3973C76.7478 190.824 77.0529 190.759 77.3126 190.629C77.5723 190.5 77.767 190.324 77.8968 190.104C78.0397 189.883 78.1111 189.623 78.1111 189.325C78.1111 188.844 77.9553 188.474 77.6437 188.214C77.3321 187.955 76.8647 187.825 76.2415 187.825H73.6318V190.824ZM87.7972 199.12C86.9403 199.12 86.1677 198.887 85.4796 198.419C84.7915 197.952 84.2462 197.316 83.8437 196.511C83.4412 195.706 83.24 194.784 83.24 193.745C83.24 192.707 83.4412 191.791 83.8437 190.999C84.2592 190.194 84.8175 189.565 85.5186 189.11C86.2197 188.643 87.0182 188.409 87.914 188.409C88.4204 188.409 88.8813 188.487 89.2967 188.643C89.7252 188.786 90.0952 188.987 90.4068 189.247C90.7314 189.506 91.004 189.805 91.2248 190.142C91.4455 190.48 91.6013 190.844 91.6922 191.233L91.1079 191.136V188.623H93.8539V198.926H91.069V196.452L91.6922 196.394C91.5883 196.757 91.4195 197.102 91.1858 197.426C90.9521 197.751 90.66 198.043 90.3094 198.303C89.9719 198.549 89.5889 198.75 89.1604 198.906C88.732 199.049 88.2775 199.12 87.7972 199.12ZM88.5567 196.725C89.076 196.725 89.5304 196.602 89.9199 196.355C90.3094 196.108 90.6081 195.764 90.8158 195.323C91.0365 194.868 91.1469 194.343 91.1469 193.745C91.1469 193.161 91.0365 192.648 90.8158 192.207C90.6081 191.765 90.3094 191.421 89.9199 191.175C89.5304 190.915 89.076 190.785 88.5567 190.785C88.0503 190.785 87.6024 190.915 87.2129 191.175C86.8364 191.421 86.5378 191.765 86.3171 192.207C86.0963 192.648 85.986 193.161 85.986 193.745C85.986 194.343 86.0963 194.868 86.3171 195.323C86.5378 195.764 86.8364 196.108 87.2129 196.355C87.6024 196.602 88.0503 196.725 88.5567 196.725ZM101.32 203.405C100.502 203.405 99.6971 203.282 98.9051 203.035C98.1131 202.801 97.4704 202.496 96.977 202.12L97.9508 200.133C98.2105 200.315 98.5091 200.477 98.8467 200.62C99.1842 200.763 99.5348 200.873 99.8983 200.951C100.275 201.029 100.658 201.068 101.047 201.068C101.722 201.068 102.274 200.964 102.703 200.756C103.144 200.549 103.475 200.237 103.696 199.822C103.917 199.419 104.027 198.9 104.027 198.264V196.472L104.494 196.569C104.417 196.998 104.202 197.394 103.852 197.757C103.501 198.108 103.06 198.393 102.527 198.614C101.995 198.822 101.45 198.926 100.892 198.926C99.9308 198.926 99.0804 198.705 98.3403 198.264C97.6002 197.822 97.016 197.212 96.5875 196.433C96.1591 195.654 95.9449 194.758 95.9449 193.745C95.9449 192.707 96.1526 191.791 96.5681 190.999C96.9965 190.194 97.5743 189.565 98.3014 189.11C99.0414 188.643 99.8788 188.409 100.814 188.409C101.203 188.409 101.573 188.455 101.924 188.546C102.287 188.636 102.618 188.766 102.917 188.935C103.229 189.091 103.501 189.273 103.735 189.48C103.982 189.675 104.183 189.889 104.339 190.123C104.494 190.357 104.592 190.59 104.631 190.824L104.066 190.98L104.144 188.623H106.792V198.147C106.792 198.991 106.669 199.737 106.422 200.386C106.176 201.036 105.812 201.581 105.332 202.022C104.864 202.477 104.287 202.821 103.599 203.054C102.923 203.288 102.164 203.405 101.32 203.405ZM101.398 196.706C101.943 196.706 102.417 196.582 102.82 196.336C103.235 196.089 103.553 195.745 103.774 195.303C103.995 194.862 104.105 194.343 104.105 193.745C104.105 193.161 103.995 192.648 103.774 192.207C103.553 191.752 103.235 191.402 102.82 191.155C102.417 190.908 101.943 190.785 101.398 190.785C100.866 190.785 100.392 190.915 99.9762 191.175C99.5737 191.421 99.2621 191.765 99.0414 192.207C98.8207 192.648 98.7103 193.161 98.7103 193.745C98.7103 194.33 98.8207 194.849 99.0414 195.303C99.2621 195.745 99.5737 196.089 99.9762 196.336C100.392 196.582 100.866 196.706 101.398 196.706ZM109.774 198.926V188.623H112.539V198.926H109.774ZM111.137 186.501C110.605 186.501 110.189 186.371 109.891 186.111C109.592 185.851 109.443 185.481 109.443 185.001C109.443 184.56 109.592 184.203 109.891 183.93C110.202 183.644 110.618 183.501 111.137 183.501C111.669 183.501 112.085 183.638 112.383 183.91C112.682 184.17 112.831 184.534 112.831 185.001C112.831 185.455 112.676 185.819 112.364 186.092C112.065 186.364 111.656 186.501 111.137 186.501ZM118.122 195.829L117.304 193.551L122.173 188.623H125.815L118.122 195.829ZM115.493 198.926V184.514H118.258V198.926H115.493ZM122.465 198.926L118.765 194.271L120.712 192.713L125.795 198.926H122.465ZM130.741 199.12C129.884 199.12 129.112 198.887 128.424 198.419C127.735 197.952 127.19 197.316 126.788 196.511C126.385 195.706 126.184 194.784 126.184 193.745C126.184 192.707 126.385 191.791 126.788 190.999C127.203 190.194 127.761 189.565 128.463 189.11C129.164 188.643 129.962 188.409 130.858 188.409C131.364 188.409 131.825 188.487 132.241 188.643C132.669 188.786 133.039 188.987 133.351 189.247C133.675 189.506 133.948 189.805 134.169 190.142C134.389 190.48 134.545 190.844 134.636 191.233L134.052 191.136V188.623H136.798V198.926H134.013V196.452L134.636 196.394C134.532 196.757 134.363 197.102 134.13 197.426C133.896 197.751 133.604 198.043 133.253 198.303C132.916 198.549 132.533 198.75 132.104 198.906C131.676 199.049 131.222 199.12 130.741 199.12ZM131.501 196.725C132.02 196.725 132.474 196.602 132.864 196.355C133.253 196.108 133.552 195.764 133.76 195.323C133.98 194.868 134.091 194.343 134.091 193.745C134.091 193.161 133.98 192.648 133.76 192.207C133.552 191.765 133.253 191.421 132.864 191.175C132.474 190.915 132.02 190.785 131.501 190.785C130.994 190.785 130.546 190.915 130.157 191.175C129.78 191.421 129.482 191.765 129.261 192.207C129.04 192.648 128.93 193.161 128.93 193.745C128.93 194.343 129.04 194.868 129.261 195.323C129.482 195.764 129.78 196.108 130.157 196.355C130.546 196.602 130.994 196.725 131.501 196.725ZM139.57 198.926V188.623H142.219L142.297 190.727L141.752 190.96C141.894 190.493 142.148 190.071 142.511 189.695C142.888 189.305 143.336 188.993 143.855 188.76C144.374 188.526 144.92 188.409 145.491 188.409C146.27 188.409 146.919 188.565 147.438 188.877C147.971 189.188 148.367 189.662 148.626 190.298C148.899 190.921 149.035 191.694 149.035 192.616V198.926H146.27V192.83C146.27 192.363 146.205 191.973 146.075 191.662C145.945 191.35 145.744 191.123 145.471 190.98C145.212 190.824 144.887 190.759 144.498 190.785C144.186 190.785 143.894 190.837 143.621 190.941C143.362 191.032 143.134 191.168 142.94 191.35C142.758 191.532 142.609 191.739 142.492 191.973C142.388 192.207 142.336 192.46 142.336 192.733V198.926H140.973C140.674 198.926 140.408 198.926 140.174 198.926C139.94 198.926 139.739 198.926 139.57 198.926Z" fill="white"/>
<g filter="url(#filter2_d_1114_20)">
<rect x="191.531" y="92.1818" width="169.649" height="97.8079" rx="8.65557" fill="white"/>
</g>
<path d="M202.86 106.168V102.532H203.363L205.586 105.508L205.503 105.555C205.489 105.468 205.477 105.375 205.467 105.274C205.456 105.17 205.446 105.061 205.435 104.947C205.429 104.829 205.422 104.706 205.415 104.578C205.411 104.447 205.408 104.31 205.404 104.168C205.401 104.026 205.399 103.879 205.399 103.727V102.532H205.96V106.168H205.446L203.259 103.301L203.317 103.228C203.334 103.439 203.348 103.619 203.358 103.768C203.372 103.914 203.382 104.038 203.389 104.142C203.4 104.243 203.407 104.326 203.41 104.391C203.413 104.454 203.415 104.506 203.415 104.547C203.419 104.589 203.42 104.625 203.42 104.656V106.168H202.86ZM206.884 106.168L208.292 102.532H208.863L210.26 106.168H209.663L208.832 103.976C208.821 103.952 208.801 103.893 208.769 103.799C208.742 103.706 208.709 103.602 208.671 103.488C208.633 103.373 208.598 103.27 208.567 103.176C208.536 103.079 208.515 103.017 208.505 102.989L208.624 102.984C208.603 103.043 208.577 103.117 208.546 103.207C208.518 103.297 208.487 103.393 208.453 103.493C208.421 103.593 208.39 103.689 208.359 103.779C208.328 103.865 208.302 103.938 208.281 103.997L207.455 106.168H206.884ZM207.507 105.264L207.715 104.724H209.367L209.606 105.264H207.507ZM211.185 106.168V102.532H211.736L213.06 104.687L212.795 104.682L214.135 102.532H214.654V106.168H214.094V104.677C214.094 104.365 214.101 104.085 214.114 103.836C214.132 103.586 214.159 103.339 214.197 103.093L214.27 103.285L213.081 105.124H212.738L211.585 103.306L211.642 103.093C211.68 103.325 211.706 103.564 211.72 103.81C211.738 104.052 211.746 104.341 211.746 104.677V106.168H211.185ZM215.58 106.168L216.988 102.532H217.559L218.956 106.168H218.359L217.528 103.976C217.517 103.952 217.497 103.893 217.465 103.799C217.438 103.706 217.405 103.602 217.367 103.488C217.329 103.373 217.294 103.27 217.263 103.176C217.232 103.079 217.211 103.017 217.201 102.989L217.32 102.984C217.299 103.043 217.273 103.117 217.242 103.207C217.214 103.297 217.183 103.393 217.149 103.493C217.117 103.593 217.086 103.689 217.055 103.779C217.024 103.865 216.998 103.938 216.977 103.997L216.151 106.168H215.58ZM216.203 105.264L216.411 104.724H218.063L218.302 105.264H216.203ZM221.623 106.168V102.532H223.103C223.3 102.532 223.478 102.582 223.638 102.683C223.8 102.78 223.93 102.913 224.027 103.083C224.124 103.252 224.172 103.441 224.172 103.649C224.172 103.856 224.124 104.045 224.027 104.215C223.93 104.384 223.8 104.521 223.638 104.625C223.478 104.725 223.3 104.776 223.103 104.776H222.183V106.168H221.623ZM222.183 104.236H223.092C223.186 104.236 223.271 104.21 223.347 104.158C223.423 104.102 223.483 104.031 223.528 103.945C223.577 103.855 223.601 103.756 223.601 103.649C223.601 103.541 223.577 103.444 223.528 103.358C223.483 103.271 223.423 103.202 223.347 103.15C223.271 103.098 223.186 103.072 223.092 103.072H222.183V104.236ZM224.481 106.168L225.888 102.532H226.459L227.856 106.168H227.259L226.428 103.976C226.418 103.952 226.397 103.893 226.366 103.799C226.338 103.706 226.305 103.602 226.267 103.488C226.229 103.373 226.195 103.27 226.163 103.176C226.132 103.079 226.111 103.017 226.101 102.989L226.22 102.984C226.2 103.043 226.174 103.117 226.143 103.207C226.115 103.297 226.084 103.393 226.049 103.493C226.018 103.593 225.987 103.689 225.956 103.779C225.924 103.865 225.898 103.938 225.878 103.997L225.052 106.168H224.481ZM225.104 105.264L225.312 104.724H226.963L227.202 105.264H225.104ZM228.782 106.168V102.532H229.286L231.508 105.508L231.425 105.555C231.411 105.468 231.399 105.375 231.389 105.274C231.378 105.17 231.368 105.061 231.358 104.947C231.351 104.829 231.344 104.706 231.337 104.578C231.333 104.447 231.33 104.31 231.327 104.168C231.323 104.026 231.321 103.879 231.321 103.727V102.532H231.882V106.168H231.368L229.182 103.301L229.239 103.228C229.256 103.439 229.27 103.619 229.28 103.768C229.294 103.914 229.305 104.038 229.312 104.142C229.322 104.243 229.329 104.326 229.332 104.391C229.336 104.454 229.338 104.506 229.338 104.547C229.341 104.589 229.343 104.625 229.343 104.656V106.168H228.782ZM234.811 106.219C234.548 106.219 234.302 106.173 234.074 106.079C233.845 105.982 233.644 105.849 233.471 105.679C233.298 105.51 233.163 105.312 233.066 105.087C232.973 104.859 232.926 104.613 232.926 104.35C232.926 104.09 232.973 103.848 233.066 103.623C233.163 103.398 233.296 103.202 233.466 103.036C233.639 102.866 233.84 102.735 234.068 102.641C234.297 102.548 234.543 102.501 234.806 102.501C234.989 102.501 235.168 102.527 235.341 102.579C235.517 102.631 235.677 102.704 235.819 102.797C235.961 102.891 236.077 102.998 236.167 103.119L235.803 103.498C235.699 103.398 235.592 103.315 235.481 103.249C235.374 103.183 235.263 103.133 235.149 103.098C235.034 103.064 234.92 103.046 234.806 103.046C234.619 103.046 234.446 103.079 234.287 103.145C234.131 103.211 233.992 103.303 233.871 103.42C233.753 103.538 233.662 103.676 233.596 103.836C233.53 103.992 233.497 104.163 233.497 104.35C233.497 104.53 233.532 104.701 233.601 104.864C233.67 105.023 233.766 105.163 233.887 105.285C234.011 105.406 234.153 105.501 234.313 105.57C234.475 105.64 234.647 105.674 234.827 105.674C234.962 105.674 235.09 105.655 235.211 105.617C235.332 105.575 235.44 105.518 235.533 105.446C235.626 105.373 235.699 105.29 235.751 105.196C235.803 105.099 235.829 104.997 235.829 104.89V104.786L235.907 104.859H234.796V104.303H236.405C236.412 104.341 236.418 104.379 236.421 104.417C236.425 104.452 236.426 104.487 236.426 104.521C236.43 104.552 236.431 104.584 236.431 104.615C236.431 104.854 236.39 105.072 236.307 105.269C236.224 105.463 236.108 105.631 235.959 105.773C235.813 105.915 235.642 106.026 235.445 106.105C235.251 106.181 235.04 106.219 234.811 106.219ZM239.073 106.219C238.81 106.219 238.564 106.173 238.335 106.079C238.107 105.982 237.906 105.849 237.733 105.679C237.56 105.51 237.425 105.312 237.328 105.087C237.234 104.859 237.188 104.613 237.188 104.35C237.188 104.09 237.234 103.848 237.328 103.623C237.425 103.398 237.558 103.202 237.728 103.036C237.901 102.866 238.102 102.735 238.33 102.641C238.559 102.548 238.805 102.501 239.068 102.501C239.251 102.501 239.43 102.527 239.603 102.579C239.779 102.631 239.938 102.704 240.08 102.797C240.222 102.891 240.338 102.998 240.428 103.119L240.065 103.498C239.961 103.398 239.854 103.315 239.743 103.249C239.636 103.183 239.525 103.133 239.41 103.098C239.296 103.064 239.182 103.046 239.068 103.046C238.881 103.046 238.708 103.079 238.548 103.145C238.393 103.211 238.254 103.303 238.133 103.42C238.015 103.538 237.923 103.676 237.858 103.836C237.792 103.992 237.759 104.163 237.759 104.35C237.759 104.53 237.794 104.701 237.863 104.864C237.932 105.023 238.027 105.163 238.148 105.285C238.273 105.406 238.415 105.501 238.574 105.57C238.737 105.64 238.908 105.674 239.088 105.674C239.224 105.674 239.352 105.655 239.473 105.617C239.594 105.575 239.701 105.518 239.795 105.446C239.888 105.373 239.961 105.29 240.013 105.196C240.065 105.099 240.091 104.997 240.091 104.89V104.786L240.169 104.859H239.057V104.303H240.667C240.674 104.341 240.679 104.379 240.683 104.417C240.686 104.452 240.688 104.487 240.688 104.521C240.692 104.552 240.693 104.584 240.693 104.615C240.693 104.854 240.652 105.072 240.569 105.269C240.486 105.463 240.37 105.631 240.221 105.773C240.075 105.915 239.904 106.026 239.707 106.105C239.513 106.181 239.301 106.219 239.073 106.219ZM241.523 106.168V105.648H242.11V103.052H241.523V102.532H243.258V103.052H242.671V105.648H243.258V106.168H241.523ZM244.424 106.168V102.532H244.985V105.627H246.688V106.168H244.424ZM247.44 106.168L248.847 102.532H249.418L250.815 106.168H250.218L249.387 103.976C249.377 103.952 249.356 103.893 249.325 103.799C249.297 103.706 249.264 103.602 249.226 103.488C249.188 103.373 249.153 103.27 249.122 103.176C249.091 103.079 249.07 103.017 249.06 102.989L249.179 102.984C249.159 103.043 249.133 103.117 249.101 103.207C249.074 103.297 249.043 103.393 249.008 103.493C248.977 103.593 248.946 103.689 248.914 103.779C248.883 103.865 248.857 103.938 248.837 103.997L248.011 106.168H247.44ZM248.063 105.264L248.27 104.724H249.922L250.161 105.264H248.063ZM251.741 106.168V102.532H252.244L254.467 105.508L254.384 105.555C254.37 105.468 254.358 105.375 254.348 105.274C254.337 105.17 254.327 105.061 254.317 104.947C254.31 104.829 254.303 104.706 254.296 104.578C254.292 104.447 254.289 104.31 254.285 104.168C254.282 104.026 254.28 103.879 254.28 103.727V102.532H254.841V106.168H254.327L252.141 103.301L252.198 103.228C252.215 103.439 252.229 103.619 252.239 103.768C252.253 103.914 252.263 104.038 252.27 104.142C252.281 104.243 252.288 104.326 252.291 104.391C252.295 104.454 252.296 104.506 252.296 104.547C252.3 104.589 252.302 104.625 252.302 104.656V106.168H251.741ZM258.659 106.168L257.501 102.532H258.099L258.8 104.807C258.82 104.862 258.839 104.928 258.857 105.004C258.874 105.077 258.89 105.151 258.904 105.228C258.917 105.304 258.929 105.375 258.94 105.44C258.954 105.506 258.966 105.56 258.976 105.601L258.826 105.596C258.878 105.413 258.917 105.271 258.945 105.17C258.976 105.07 259 104.994 259.018 104.942C259.035 104.886 259.051 104.84 259.065 104.802L259.719 103.161H260.223L260.856 104.802C260.891 104.885 260.92 104.968 260.945 105.051C260.972 105.131 260.996 105.212 261.017 105.295C261.038 105.375 261.06 105.459 261.085 105.55L260.95 105.586C260.967 105.492 260.979 105.42 260.986 105.368C260.996 105.312 261.005 105.267 261.012 105.233C261.019 105.198 261.026 105.165 261.033 105.134C261.04 105.099 261.05 105.056 261.064 105.004C261.081 104.952 261.104 104.881 261.131 104.791L261.822 102.532H262.425L261.266 106.168H260.877L259.916 103.893L259.963 103.914L259.039 106.168H258.659ZM262.757 106.168L264.165 102.532H264.736L266.133 106.168H265.536L264.705 103.976C264.694 103.952 264.674 103.893 264.642 103.799C264.615 103.706 264.582 103.602 264.544 103.488C264.506 103.373 264.471 103.27 264.44 103.176C264.409 103.079 264.388 103.017 264.378 102.989L264.497 102.984C264.476 103.043 264.45 103.117 264.419 103.207C264.391 103.297 264.36 103.393 264.326 103.493C264.295 103.593 264.263 103.689 264.232 103.779C264.201 103.865 264.175 103.938 264.154 103.997L263.329 106.168H262.757ZM263.38 105.264L263.588 104.724H265.24L265.479 105.264H263.38ZM267.058 106.168V102.532H267.562L269.785 105.508L269.702 105.555C269.688 105.468 269.676 105.375 269.665 105.274C269.655 105.17 269.645 105.061 269.634 104.947C269.627 104.829 269.62 104.706 269.613 104.578C269.61 104.447 269.607 104.31 269.603 104.168C269.6 104.026 269.598 103.879 269.598 103.727V102.532H270.159V106.168H269.645L267.458 103.301L267.515 103.228C267.533 103.439 267.547 103.619 267.557 103.768C267.571 103.914 267.581 104.038 267.588 104.142C267.598 104.243 267.605 104.326 267.609 104.391C267.612 104.454 267.614 104.506 267.614 104.547C267.618 104.589 267.619 104.625 267.619 104.656V106.168H267.058ZM271.327 106.168V105.648H271.914V103.052H271.327V102.532H273.062V103.052H272.475V105.648H273.062V106.168H271.327ZM274.919 106.168V103.072H273.901V102.532H276.528V103.072H275.479V106.168H274.919ZM276.868 106.168L278.275 102.532H278.847L280.244 106.168H279.646L278.815 103.976C278.805 103.952 278.784 103.893 278.753 103.799C278.725 103.706 278.693 103.602 278.654 103.488C278.616 103.373 278.582 103.27 278.551 103.176C278.519 103.079 278.499 103.017 278.488 102.989L278.608 102.984C278.587 103.043 278.561 103.117 278.53 103.207C278.502 103.297 278.471 103.393 278.436 103.493C278.405 103.593 278.374 103.689 278.343 103.779C278.312 103.865 278.286 103.938 278.265 103.997L277.439 106.168H276.868ZM277.491 105.264L277.699 104.724H279.35L279.589 105.264H277.491Z" fill="#A4A4A4"/>
<path d="M211.611 126.457C211.38 126.457 211.166 126.426 210.968 126.366C210.774 126.305 210.597 126.214 210.435 126.093C210.278 125.968 210.136 125.814 210.011 125.633L210.459 125.118C210.657 125.4 210.847 125.596 211.029 125.705C211.211 125.814 211.427 125.869 211.677 125.869C211.831 125.869 211.97 125.845 212.095 125.796C212.22 125.748 212.319 125.681 212.392 125.596C212.465 125.511 212.501 125.415 212.501 125.305C212.501 125.233 212.489 125.164 212.465 125.099C212.441 125.035 212.402 124.976 212.35 124.924C212.301 124.871 212.237 124.823 212.156 124.778C212.079 124.734 211.988 124.696 211.883 124.663C211.778 124.627 211.657 124.597 211.52 124.572C211.301 124.528 211.112 124.469 210.95 124.397C210.789 124.324 210.653 124.233 210.544 124.124C210.435 124.015 210.354 123.892 210.302 123.754C210.249 123.613 210.223 123.456 210.223 123.282C210.223 123.112 210.259 122.955 210.332 122.809C210.409 122.664 210.512 122.539 210.641 122.434C210.774 122.325 210.93 122.242 211.108 122.185C211.285 122.125 211.477 122.094 211.683 122.094C211.901 122.094 212.101 122.123 212.283 122.179C212.465 122.236 212.626 122.32 212.768 122.434C212.909 122.543 213.026 122.678 213.119 122.84L212.659 123.294C212.578 123.161 212.487 123.05 212.386 122.961C212.285 122.868 212.174 122.799 212.053 122.755C211.932 122.706 211.802 122.682 211.665 122.682C211.508 122.682 211.37 122.706 211.253 122.755C211.136 122.803 211.043 122.872 210.974 122.961C210.91 123.046 210.877 123.146 210.877 123.264C210.877 123.348 210.894 123.427 210.926 123.5C210.958 123.569 211.007 123.631 211.071 123.688C211.14 123.74 211.231 123.789 211.344 123.833C211.457 123.874 211.592 123.91 211.75 123.942C211.972 123.991 212.17 124.053 212.344 124.13C212.517 124.203 212.665 124.29 212.786 124.391C212.907 124.492 212.998 124.605 213.059 124.73C213.123 124.855 213.156 124.99 213.156 125.136C213.156 125.406 213.093 125.641 212.968 125.839C212.842 126.037 212.665 126.19 212.435 126.299C212.204 126.404 211.93 126.457 211.611 126.457ZM215.373 126.457C215.147 126.457 214.949 126.404 214.779 126.299C214.614 126.194 214.485 126.047 214.392 125.857C214.303 125.667 214.258 125.441 214.258 125.178V123.215H214.882V125.009C214.882 125.194 214.911 125.356 214.967 125.493C215.028 125.627 215.113 125.73 215.222 125.802C215.335 125.875 215.47 125.911 215.628 125.911C215.745 125.911 215.852 125.893 215.949 125.857C216.046 125.816 216.129 125.762 216.197 125.693C216.27 125.625 216.326 125.542 216.367 125.445C216.407 125.348 216.427 125.243 216.427 125.13V123.215H217.052V126.396H216.427V125.73L216.537 125.657C216.488 125.806 216.405 125.942 216.288 126.063C216.175 126.184 216.04 126.281 215.882 126.354C215.725 126.422 215.555 126.457 215.373 126.457ZM218.272 126.396V121.913H218.896V126.396H218.272ZM220.217 126.396V123.215H220.841V126.396H220.217ZM220.52 122.512C220.387 122.512 220.284 122.478 220.211 122.409C220.138 122.341 220.102 122.244 220.102 122.119C220.102 122.001 220.138 121.906 220.211 121.834C220.288 121.761 220.391 121.725 220.52 121.725C220.653 121.725 220.756 121.759 220.829 121.828C220.902 121.896 220.938 121.993 220.938 122.119C220.938 122.236 220.9 122.331 220.823 122.403C220.75 122.476 220.649 122.512 220.52 122.512ZM223.194 126.457C222.927 126.457 222.687 126.41 222.473 126.317C222.259 126.224 222.081 126.087 221.94 125.905L222.364 125.542C222.485 125.683 222.616 125.786 222.758 125.851C222.903 125.911 223.067 125.942 223.248 125.942C223.321 125.942 223.388 125.934 223.448 125.917C223.513 125.897 223.567 125.869 223.612 125.833C223.66 125.796 223.697 125.754 223.721 125.705C223.745 125.653 223.757 125.596 223.757 125.536C223.757 125.431 223.719 125.346 223.642 125.281C223.602 125.253 223.537 125.223 223.448 125.19C223.363 125.154 223.252 125.118 223.115 125.081C222.881 125.021 222.689 124.952 222.539 124.875C222.39 124.799 222.275 124.712 222.194 124.615C222.134 124.538 222.089 124.455 222.061 124.366C222.033 124.273 222.018 124.172 222.018 124.063C222.018 123.93 222.047 123.809 222.103 123.7C222.164 123.587 222.245 123.49 222.346 123.409C222.451 123.324 222.572 123.26 222.709 123.215C222.851 123.171 223 123.149 223.157 123.149C223.307 123.149 223.454 123.169 223.6 123.209C223.749 123.249 223.887 123.308 224.012 123.385C224.137 123.462 224.242 123.552 224.327 123.657L223.969 124.051C223.893 123.975 223.808 123.908 223.715 123.851C223.626 123.791 223.535 123.744 223.442 123.712C223.349 123.68 223.265 123.664 223.188 123.664C223.103 123.664 223.026 123.672 222.958 123.688C222.889 123.704 222.83 123.728 222.782 123.76C222.737 123.793 222.703 123.833 222.679 123.882C222.655 123.93 222.642 123.985 222.642 124.045C222.647 124.098 222.659 124.148 222.679 124.197C222.703 124.241 222.735 124.28 222.776 124.312C222.82 124.344 222.887 124.378 222.976 124.415C223.065 124.451 223.178 124.486 223.315 124.518C223.517 124.57 223.683 124.629 223.812 124.694C223.945 124.754 224.05 124.825 224.127 124.906C224.208 124.982 224.264 125.071 224.297 125.172C224.329 125.273 224.345 125.386 224.345 125.511C224.345 125.693 224.293 125.857 224.187 126.002C224.087 126.144 223.949 126.255 223.775 126.335C223.602 126.416 223.408 126.457 223.194 126.457Z" fill="#333333"/>
<rect x="202.567" y="114.903" width="147.145" height="20.7734" rx="1.9475" stroke="#D9D9D9" stroke-width="0.432779"/>
<path d="M202.86 148.281V144.646H203.363L205.586 147.622L205.503 147.669C205.489 147.582 205.477 147.489 205.467 147.388C205.456 147.284 205.446 147.175 205.435 147.061C205.429 146.943 205.422 146.82 205.415 146.692C205.411 146.561 205.408 146.424 205.404 146.282C205.401 146.14 205.399 145.993 205.399 145.841V144.646H205.96V148.281H205.446L203.259 145.415L203.317 145.342C203.334 145.553 203.348 145.733 203.358 145.882C203.372 146.028 203.382 146.152 203.389 146.256C203.4 146.356 203.407 146.44 203.41 146.505C203.413 146.568 203.415 146.62 203.415 146.661C203.419 146.703 203.42 146.739 203.42 146.77V148.281H202.86ZM206.884 148.281L208.292 144.646H208.863L210.26 148.281H209.663L208.832 146.09C208.821 146.066 208.801 146.007 208.769 145.913C208.742 145.82 208.709 145.716 208.671 145.602C208.633 145.487 208.598 145.384 208.567 145.29C208.536 145.193 208.515 145.131 208.505 145.103L208.624 145.098C208.603 145.157 208.577 145.231 208.546 145.321C208.518 145.411 208.487 145.506 208.453 145.607C208.421 145.707 208.39 145.803 208.359 145.893C208.328 145.979 208.302 146.052 208.281 146.111L207.455 148.281H206.884ZM207.507 147.378L207.715 146.838H209.367L209.606 147.378H207.507ZM211.185 148.281V144.646H211.736L213.06 146.801L212.795 146.796L214.135 144.646H214.654V148.281H214.094V146.791C214.094 146.479 214.101 146.199 214.114 145.95C214.132 145.7 214.159 145.453 214.197 145.207L214.27 145.399L213.081 147.238H212.738L211.585 145.42L211.642 145.207C211.68 145.439 211.706 145.678 211.72 145.924C211.738 146.166 211.746 146.455 211.746 146.791V148.281H211.185ZM215.58 148.281L216.988 144.646H217.559L218.956 148.281H218.359L217.528 146.09C217.517 146.066 217.497 146.007 217.465 145.913C217.438 145.82 217.405 145.716 217.367 145.602C217.329 145.487 217.294 145.384 217.263 145.29C217.232 145.193 217.211 145.131 217.201 145.103L217.32 145.098C217.299 145.157 217.273 145.231 217.242 145.321C217.214 145.411 217.183 145.506 217.149 145.607C217.117 145.707 217.086 145.803 217.055 145.893C217.024 145.979 216.998 146.052 216.977 146.111L216.151 148.281H215.58ZM216.203 147.378L216.411 146.838H218.063L218.302 147.378H216.203ZM221.623 148.281V144.646H223.103C223.3 144.646 223.478 144.696 223.638 144.797C223.8 144.894 223.93 145.027 224.027 145.197C224.124 145.366 224.172 145.555 224.172 145.763C224.172 145.97 224.124 146.159 224.027 146.329C223.93 146.498 223.8 146.635 223.638 146.739C223.478 146.839 223.3 146.89 223.103 146.89H222.183V148.281H221.623ZM222.183 146.35H223.092C223.186 146.35 223.271 146.324 223.347 146.272C223.423 146.216 223.483 146.145 223.528 146.059C223.577 145.969 223.601 145.87 223.601 145.763C223.601 145.655 223.577 145.558 223.528 145.472C223.483 145.385 223.423 145.316 223.347 145.264C223.271 145.212 223.186 145.186 223.092 145.186H222.183V146.35ZM224.481 148.281L225.888 144.646H226.459L227.856 148.281H227.259L226.428 146.09C226.418 146.066 226.397 146.007 226.366 145.913C226.338 145.82 226.305 145.716 226.267 145.602C226.229 145.487 226.195 145.384 226.163 145.29C226.132 145.193 226.111 145.131 226.101 145.103L226.22 145.098C226.2 145.157 226.174 145.231 226.143 145.321C226.115 145.411 226.084 145.506 226.049 145.607C226.018 145.707 225.987 145.803 225.956 145.893C225.924 145.979 225.898 146.052 225.878 146.111L225.052 148.281H224.481ZM225.104 147.378L225.312 146.838H226.963L227.202 147.378H225.104ZM228.782 148.281V144.646H229.286L231.508 147.622L231.425 147.669C231.411 147.582 231.399 147.489 231.389 147.388C231.378 147.284 231.368 147.175 231.358 147.061C231.351 146.943 231.344 146.82 231.337 146.692C231.333 146.561 231.33 146.424 231.327 146.282C231.323 146.14 231.321 145.993 231.321 145.841V144.646H231.882V148.281H231.368L229.182 145.415L229.239 145.342C229.256 145.553 229.27 145.733 229.28 145.882C229.294 146.028 229.305 146.152 229.312 146.256C229.322 146.356 229.329 146.44 229.332 146.505C229.336 146.568 229.338 146.62 229.338 146.661C229.341 146.703 229.343 146.739 229.343 146.77V148.281H228.782ZM234.811 148.333C234.548 148.333 234.302 148.287 234.074 148.193C233.845 148.096 233.644 147.963 233.471 147.793C233.298 147.624 233.163 147.426 233.066 147.201C232.973 146.973 232.926 146.727 232.926 146.464C232.926 146.204 232.973 145.962 233.066 145.737C233.163 145.512 233.296 145.316 233.466 145.15C233.639 144.98 233.84 144.849 234.068 144.755C234.297 144.662 234.543 144.615 234.806 144.615C234.989 144.615 235.168 144.641 235.341 144.693C235.517 144.745 235.677 144.818 235.819 144.911C235.961 145.004 236.077 145.112 236.167 145.233L235.803 145.612C235.699 145.512 235.592 145.429 235.481 145.363C235.374 145.297 235.263 145.247 235.149 145.212C235.034 145.178 234.92 145.16 234.806 145.16C234.619 145.16 234.446 145.193 234.287 145.259C234.131 145.325 233.992 145.416 233.871 145.534C233.753 145.652 233.662 145.79 233.596 145.95C233.53 146.105 233.497 146.277 233.497 146.464C233.497 146.644 233.532 146.815 233.601 146.978C233.67 147.137 233.766 147.277 233.887 147.399C234.011 147.52 234.153 147.615 234.313 147.684C234.475 147.753 234.647 147.788 234.827 147.788C234.962 147.788 235.09 147.769 235.211 147.731C235.332 147.689 235.44 147.632 235.533 147.56C235.626 147.487 235.699 147.404 235.751 147.31C235.803 147.213 235.829 147.111 235.829 147.004V146.9L235.907 146.973H234.796V146.417H236.405C236.412 146.455 236.418 146.493 236.421 146.531C236.425 146.566 236.426 146.601 236.426 146.635C236.43 146.666 236.431 146.697 236.431 146.729C236.431 146.968 236.39 147.186 236.307 147.383C236.224 147.577 236.108 147.745 235.959 147.887C235.813 148.029 235.642 148.14 235.445 148.219C235.251 148.295 235.04 148.333 234.811 148.333ZM239.073 148.333C238.81 148.333 238.564 148.287 238.335 148.193C238.107 148.096 237.906 147.963 237.733 147.793C237.56 147.624 237.425 147.426 237.328 147.201C237.234 146.973 237.188 146.727 237.188 146.464C237.188 146.204 237.234 145.962 237.328 145.737C237.425 145.512 237.558 145.316 237.728 145.15C237.901 144.98 238.102 144.849 238.33 144.755C238.559 144.662 238.805 144.615 239.068 144.615C239.251 144.615 239.43 144.641 239.603 144.693C239.779 144.745 239.938 144.818 240.08 144.911C240.222 145.004 240.338 145.112 240.428 145.233L240.065 145.612C239.961 145.512 239.854 145.429 239.743 145.363C239.636 145.297 239.525 145.247 239.41 145.212C239.296 145.178 239.182 145.16 239.068 145.16C238.881 145.16 238.708 145.193 238.548 145.259C238.393 145.325 238.254 145.416 238.133 145.534C238.015 145.652 237.923 145.79 237.858 145.95C237.792 146.105 237.759 146.277 237.759 146.464C237.759 146.644 237.794 146.815 237.863 146.978C237.932 147.137 238.027 147.277 238.148 147.399C238.273 147.52 238.415 147.615 238.574 147.684C238.737 147.753 238.908 147.788 239.088 147.788C239.224 147.788 239.352 147.769 239.473 147.731C239.594 147.689 239.701 147.632 239.795 147.56C239.888 147.487 239.961 147.404 240.013 147.31C240.065 147.213 240.091 147.111 240.091 147.004V146.9L240.169 146.973H239.057V146.417H240.667C240.674 146.455 240.679 146.493 240.683 146.531C240.686 146.566 240.688 146.601 240.688 146.635C240.692 146.666 240.693 146.697 240.693 146.729C240.693 146.968 240.652 147.186 240.569 147.383C240.486 147.577 240.37 147.745 240.221 147.887C240.075 148.029 239.904 148.14 239.707 148.219C239.513 148.295 239.301 148.333 239.073 148.333ZM241.523 148.281V147.762H242.11V145.165H241.523V144.646H243.258V145.165H242.671V147.762H243.258V148.281H241.523ZM244.424 148.281V144.646H244.985V147.741H246.688V148.281H244.424ZM247.44 148.281L248.847 144.646H249.418L250.815 148.281H250.218L249.387 146.09C249.377 146.066 249.356 146.007 249.325 145.913C249.297 145.82 249.264 145.716 249.226 145.602C249.188 145.487 249.153 145.384 249.122 145.29C249.091 145.193 249.07 145.131 249.06 145.103L249.179 145.098C249.159 145.157 249.133 145.231 249.101 145.321C249.074 145.411 249.043 145.506 249.008 145.607C248.977 145.707 248.946 145.803 248.914 145.893C248.883 145.979 248.857 146.052 248.837 146.111L248.011 148.281H247.44ZM248.063 147.378L248.27 146.838H249.922L250.161 147.378H248.063ZM251.741 148.281V144.646H252.244L254.467 147.622L254.384 147.669C254.37 147.582 254.358 147.489 254.348 147.388C254.337 147.284 254.327 147.175 254.317 147.061C254.31 146.943 254.303 146.82 254.296 146.692C254.292 146.561 254.289 146.424 254.285 146.282C254.282 146.14 254.28 145.993 254.28 145.841V144.646H254.841V148.281H254.327L252.141 145.415L252.198 145.342C252.215 145.553 252.229 145.733 252.239 145.882C252.253 146.028 252.263 146.152 252.27 146.256C252.281 146.356 252.288 146.44 252.291 146.505C252.295 146.568 252.296 146.62 252.296 146.661C252.3 146.703 252.302 146.739 252.302 146.77V148.281H251.741ZM257.886 148.281V144.646H259.366C259.563 144.646 259.741 144.696 259.901 144.797C260.063 144.894 260.193 145.027 260.29 145.197C260.387 145.366 260.436 145.555 260.436 145.763C260.436 145.97 260.387 146.159 260.29 146.329C260.193 146.498 260.063 146.635 259.901 146.739C259.741 146.839 259.563 146.89 259.366 146.89H258.447V148.281H257.886ZM258.447 146.35H259.355C259.449 146.35 259.534 146.324 259.61 146.272C259.686 146.216 259.747 146.145 259.792 146.059C259.84 145.969 259.864 145.87 259.864 145.763C259.864 145.655 259.84 145.558 259.792 145.472C259.747 145.385 259.686 145.316 259.61 145.264C259.534 145.212 259.449 145.186 259.355 145.186H258.447V146.35ZM261.463 148.281V144.646H263.01C263.218 144.646 263.409 144.698 263.582 144.802C263.758 144.902 263.898 145.041 264.002 145.217C264.106 145.391 264.158 145.586 264.158 145.804C264.158 146.002 264.106 146.185 264.002 146.355C263.898 146.524 263.76 146.661 263.587 146.765C263.414 146.865 263.222 146.916 263.01 146.916H262.024V148.281H261.463ZM263.623 148.281L262.699 146.64L263.275 146.511L264.304 148.287L263.623 148.281ZM262.024 146.376H263.062C263.163 146.376 263.253 146.351 263.332 146.303C263.412 146.251 263.474 146.182 263.519 146.095C263.564 146.005 263.587 145.906 263.587 145.799C263.587 145.678 263.557 145.572 263.499 145.482C263.443 145.389 263.364 145.316 263.26 145.264C263.159 145.212 263.045 145.186 262.917 145.186H262.024V146.376ZM265.224 148.281V147.762H265.811V145.165H265.224V144.646H266.959V145.165H266.372V147.762H266.959V148.281H265.224ZM267.746 148.281L269.153 144.646H269.725L271.122 148.281H270.524L269.693 146.09C269.683 146.066 269.662 146.007 269.631 145.913C269.603 145.82 269.571 145.716 269.532 145.602C269.494 145.487 269.46 145.384 269.429 145.29C269.397 145.193 269.377 145.131 269.366 145.103L269.486 145.098C269.465 145.157 269.439 145.231 269.408 145.321C269.38 145.411 269.349 145.506 269.314 145.607C269.283 145.707 269.252 145.803 269.221 145.893C269.19 145.979 269.164 146.052 269.143 146.111L268.317 148.281H267.746ZM268.369 147.378L268.577 146.838H270.228L270.467 147.378H268.369Z" fill="#A4A4A4"/>
<path d="M210.302 168.51V164.269H212.071C212.342 164.269 212.57 164.309 212.756 164.39C212.941 164.471 213.081 164.592 213.174 164.754C213.271 164.911 213.319 165.105 213.319 165.335C213.319 165.565 213.254 165.761 213.125 165.923C213 166.084 212.824 166.196 212.598 166.256V166.135C212.788 166.175 212.954 166.248 213.095 166.353C213.236 166.454 213.345 166.581 213.422 166.735C213.503 166.888 213.543 167.064 213.543 167.262C213.543 167.464 213.511 167.644 213.446 167.801C213.386 167.955 213.293 168.084 213.168 168.189C213.046 168.294 212.899 168.375 212.725 168.431C212.552 168.484 212.354 168.51 212.132 168.51H210.302ZM210.956 167.88H212.095C212.261 167.88 212.4 167.856 212.513 167.807C212.63 167.759 212.719 167.688 212.78 167.595C212.844 167.498 212.877 167.383 212.877 167.25C212.877 167.125 212.842 167.018 212.774 166.929C212.709 166.84 212.616 166.773 212.495 166.729C212.374 166.68 212.231 166.656 212.065 166.656H210.956V167.88ZM210.956 166.026H212.035C212.156 166.026 212.263 166.002 212.356 165.953C212.453 165.905 212.527 165.838 212.58 165.753C212.636 165.668 212.665 165.571 212.665 165.462C212.665 165.281 212.604 165.141 212.483 165.044C212.362 164.947 212.188 164.899 211.962 164.899H210.956V166.026ZM215.82 168.571C215.557 168.571 215.317 168.498 215.099 168.353C214.884 168.207 214.713 168.009 214.584 167.759C214.454 167.508 214.39 167.226 214.39 166.91C214.39 166.591 214.454 166.309 214.584 166.062C214.717 165.812 214.895 165.616 215.117 165.475C215.343 165.333 215.595 165.262 215.874 165.262C216.04 165.262 216.191 165.287 216.328 165.335C216.466 165.384 216.585 165.452 216.686 165.541C216.791 165.626 216.876 165.725 216.94 165.838C217.009 165.951 217.052 166.072 217.068 166.202L216.928 166.153V165.329H217.558V168.51H216.928V167.753L217.074 167.71C217.05 167.819 216.999 167.926 216.922 168.031C216.85 168.132 216.755 168.223 216.637 168.304C216.524 168.385 216.397 168.449 216.256 168.498C216.118 168.546 215.973 168.571 215.82 168.571ZM215.983 167.995C216.173 167.995 216.341 167.949 216.486 167.856C216.631 167.763 216.745 167.636 216.825 167.474C216.91 167.308 216.953 167.121 216.953 166.91C216.953 166.704 216.91 166.521 216.825 166.359C216.745 166.198 216.631 166.07 216.486 165.977C216.341 165.885 216.173 165.838 215.983 165.838C215.797 165.838 215.632 165.885 215.486 165.977C215.345 166.07 215.232 166.198 215.147 166.359C215.066 166.521 215.026 166.704 215.026 166.91C215.026 167.121 215.066 167.308 215.147 167.474C215.232 167.636 215.345 167.763 215.486 167.856C215.632 167.949 215.797 167.995 215.983 167.995ZM218.751 168.51V165.329H219.381V166.008L219.266 166.08C219.298 165.975 219.349 165.874 219.417 165.777C219.49 165.681 219.577 165.596 219.678 165.523C219.783 165.446 219.894 165.386 220.011 165.341C220.132 165.297 220.256 165.275 220.381 165.275C220.563 165.275 220.722 165.305 220.859 165.365C220.997 165.426 221.11 165.517 221.199 165.638C221.288 165.759 221.352 165.911 221.393 166.093L221.296 166.068L221.338 165.965C221.382 165.872 221.443 165.786 221.52 165.705C221.601 165.62 221.692 165.545 221.792 165.481C221.893 165.416 222.001 165.365 222.114 165.329C222.227 165.293 222.338 165.275 222.447 165.275C222.685 165.275 222.881 165.323 223.035 165.42C223.192 165.517 223.309 165.664 223.386 165.862C223.467 166.06 223.507 166.307 223.507 166.601V168.51H222.877V166.638C222.877 166.456 222.853 166.309 222.804 166.196C222.76 166.078 222.691 165.992 222.598 165.935C222.505 165.878 222.386 165.85 222.241 165.85C222.128 165.85 222.021 165.87 221.92 165.911C221.823 165.947 221.738 166 221.665 166.068C221.593 166.137 221.536 166.218 221.496 166.311C221.455 166.4 221.435 166.498 221.435 166.608V168.51H220.805V166.626C220.805 166.46 220.781 166.321 220.732 166.208C220.684 166.091 220.613 166.002 220.52 165.941C220.427 165.88 220.314 165.85 220.181 165.85C220.068 165.85 219.963 165.87 219.866 165.911C219.769 165.947 219.684 166 219.611 166.068C219.539 166.133 219.482 166.212 219.442 166.305C219.401 166.393 219.381 166.49 219.381 166.595V168.51H218.751ZM226.348 168.571C226.211 168.571 226.073 168.548 225.936 168.504C225.803 168.46 225.68 168.401 225.567 168.328C225.458 168.252 225.365 168.169 225.288 168.08C225.215 167.987 225.167 167.894 225.142 167.801L225.3 167.716V168.492H224.676V164.026H225.3V166.056L225.203 166.002C225.223 165.909 225.268 165.82 225.336 165.735C225.405 165.646 225.492 165.567 225.597 165.499C225.706 165.426 225.823 165.37 225.948 165.329C226.073 165.285 226.201 165.262 226.33 165.262C226.617 165.262 226.871 165.333 227.093 165.475C227.316 165.616 227.491 165.812 227.621 166.062C227.75 166.309 227.814 166.591 227.814 166.91C227.814 167.23 227.75 167.514 227.621 167.765C227.495 168.015 227.322 168.213 227.099 168.359C226.877 168.5 226.627 168.571 226.348 168.571ZM226.245 168.001C226.431 168.001 226.597 167.955 226.742 167.862C226.887 167.765 227.003 167.636 227.087 167.474C227.172 167.308 227.215 167.121 227.215 166.91C227.215 166.704 227.172 166.521 227.087 166.359C227.007 166.194 226.893 166.064 226.748 165.971C226.603 165.878 226.435 165.832 226.245 165.832C226.055 165.832 225.888 165.878 225.742 165.971C225.597 166.064 225.482 166.194 225.397 166.359C225.312 166.521 225.27 166.704 225.27 166.91C225.27 167.121 225.312 167.308 225.397 167.474C225.482 167.636 225.597 167.765 225.742 167.862C225.888 167.955 226.055 168.001 226.245 168.001ZM230.049 168.571C229.787 168.571 229.547 168.498 229.328 168.353C229.114 168.207 228.943 168.009 228.813 167.759C228.684 167.508 228.62 167.226 228.62 166.91C228.62 166.591 228.684 166.309 228.813 166.062C228.947 165.812 229.124 165.616 229.347 165.475C229.573 165.333 229.825 165.262 230.104 165.262C230.27 165.262 230.421 165.287 230.558 165.335C230.696 165.384 230.815 165.452 230.916 165.541C231.021 165.626 231.106 165.725 231.17 165.838C231.239 165.951 231.281 166.072 231.298 166.202L231.158 166.153V165.329H231.788V168.51H231.158V167.753L231.304 167.71C231.279 167.819 231.229 167.926 231.152 168.031C231.079 168.132 230.985 168.223 230.867 168.304C230.754 168.385 230.627 168.449 230.486 168.498C230.348 168.546 230.203 168.571 230.049 168.571ZM230.213 167.995C230.403 167.995 230.571 167.949 230.716 167.856C230.861 167.763 230.974 167.636 231.055 167.474C231.14 167.308 231.182 167.121 231.182 166.91C231.182 166.704 231.14 166.521 231.055 166.359C230.974 166.198 230.861 166.07 230.716 165.977C230.571 165.885 230.403 165.838 230.213 165.838C230.027 165.838 229.862 165.885 229.716 165.977C229.575 166.07 229.462 166.198 229.377 166.359C229.296 166.521 229.256 166.704 229.256 166.91C229.256 167.121 229.296 167.308 229.377 167.474C229.462 167.636 229.575 167.763 229.716 167.856C229.862 167.949 230.027 167.995 230.213 167.995ZM232.993 168.51V165.329H233.617V165.983L233.508 166.056C233.548 165.915 233.627 165.786 233.744 165.668C233.861 165.547 234.001 165.45 234.162 165.378C234.324 165.301 234.489 165.262 234.659 165.262C234.901 165.262 235.103 165.311 235.265 165.408C235.427 165.501 235.548 165.644 235.629 165.838C235.709 166.032 235.75 166.276 235.75 166.571V168.51H235.126V166.614C235.126 166.432 235.101 166.282 235.053 166.165C235.004 166.044 234.93 165.957 234.829 165.905C234.728 165.848 234.603 165.824 234.453 165.832C234.332 165.832 234.221 165.852 234.12 165.893C234.019 165.929 233.93 165.981 233.853 166.05C233.781 166.119 233.722 166.2 233.678 166.292C233.637 166.381 233.617 166.478 233.617 166.583V168.51H233.308C233.255 168.51 233.203 168.51 233.15 168.51C233.098 168.51 233.045 168.51 232.993 168.51ZM238.353 169.904C238.127 169.904 237.901 169.867 237.675 169.795C237.453 169.726 237.273 169.635 237.136 169.522L237.366 169.037C237.447 169.098 237.542 169.15 237.651 169.195C237.76 169.243 237.875 169.28 237.996 169.304C238.117 169.332 238.236 169.346 238.353 169.346C238.576 169.346 238.761 169.31 238.911 169.237C239.06 169.164 239.173 169.057 239.25 168.916C239.327 168.775 239.365 168.599 239.365 168.389V167.777L239.432 167.819C239.412 167.945 239.345 168.066 239.232 168.183C239.123 168.296 238.986 168.389 238.82 168.462C238.654 168.534 238.485 168.571 238.311 168.571C238.008 168.571 237.737 168.5 237.499 168.359C237.265 168.213 237.079 168.017 236.942 167.771C236.804 167.52 236.736 167.236 236.736 166.917C236.736 166.597 236.802 166.315 236.936 166.068C237.073 165.818 237.259 165.622 237.493 165.481C237.731 165.335 237.998 165.262 238.293 165.262C238.414 165.262 238.531 165.279 238.644 165.311C238.757 165.339 238.862 165.382 238.959 165.438C239.056 165.491 239.143 165.549 239.22 165.614C239.297 165.679 239.359 165.747 239.408 165.82C239.456 165.893 239.486 165.961 239.499 166.026L239.365 166.074V165.329H239.989V168.316C239.989 168.571 239.951 168.795 239.874 168.989C239.801 169.187 239.694 169.352 239.553 169.486C239.412 169.623 239.24 169.726 239.038 169.795C238.836 169.867 238.608 169.904 238.353 169.904ZM238.378 167.995C238.576 167.995 238.751 167.949 238.905 167.856C239.058 167.763 239.177 167.636 239.262 167.474C239.347 167.312 239.389 167.127 239.389 166.917C239.389 166.707 239.345 166.521 239.256 166.359C239.171 166.194 239.052 166.064 238.899 165.971C238.749 165.878 238.576 165.832 238.378 165.832C238.184 165.832 238.01 165.88 237.857 165.977C237.707 166.07 237.588 166.2 237.499 166.365C237.414 166.527 237.372 166.711 237.372 166.917C237.372 167.123 237.414 167.308 237.499 167.474C237.588 167.636 237.707 167.763 237.857 167.856C238.01 167.949 238.184 167.995 238.378 167.995Z" fill="#333333"/>
<rect x="202.567" y="157.017" width="147.145" height="20.7734" rx="1.9475" stroke="#D9D9D9" stroke-width="0.432779"/>
<defs>
<filter id="filter0_d_1114_20" x="24" y="28.6223" width="317.751" height="219.944" filterUnits="userSpaceOnUse" color-interpolation-filters="sRGB">
<feFlood flood-opacity="0" result="BackgroundImageFix"/>
<feColorMatrix in="SourceAlpha" type="matrix" values="0 0 0 0 0 0 0 0 0 0 0 0 0 0 0 0 0 0 127 0" result="hardAlpha"/>
<feOffset dy="4"/>
<feGaussianBlur stdDeviation="5"/>
<feComposite in2="hardAlpha" operator="out"/>
<feColorMatrix type="matrix" values="0 0 0 0 0 0 0 0 0 0 0 0 0 0 0 0 0 0 0.1 0"/>
<feBlend mode="normal" in2="BackgroundImageFix" result="effect1_dropShadow_1114_20"/>
<feBlend mode="normal" in="SourceGraphic" in2="effect1_dropShadow_1114_20" result="shape"/>
</filter>
<filter id="filter1_d_1114_20" x="0.435699" y="1.86417" width="233.315" height="272.698" filterUnits="userSpaceOnUse" color-interpolation-filters="sRGB">
<feFlood flood-opacity="0" result="BackgroundImageFix"/>
<feColorMatrix in="SourceAlpha" type="matrix" values="0 0 0 0 0 0 0 0 0 0 0 0 0 0 0 0 0 0 127 0" result="hardAlpha"/>
<feOffset dy="2.10425"/>
<feGaussianBlur stdDeviation="26.3031"/>
<feComposite in2="hardAlpha" operator="out"/>
<feColorMatrix type="matrix" values="0 0 0 0 0 0 0 0 0 0 0 0 0 0 0 0 0 0 0.1 0"/>
<feBlend mode="normal" in2="BackgroundImageFix" result="effect1_dropShadow_1114_20"/>
<feBlend mode="normal" in="SourceGraphic" in2="effect1_dropShadow_1114_20" result="shape"/>
</filter>
<filter id="filter2_d_1114_20" x="156.909" y="59.2907" width="238.894" height="167.053" filterUnits="userSpaceOnUse" color-interpolation-filters="sRGB">
<feFlood flood-opacity="0" result="BackgroundImageFix"/>
<feColorMatrix in="SourceAlpha" type="matrix" values="0 0 0 0 0 0 0 0 0 0 0 0 0 0 0 0 0 0 127 0" result="hardAlpha"/>
<feOffset dy="1.73111"/>
<feGaussianBlur stdDeviation="17.3111"/>
<feComposite in2="hardAlpha" operator="out"/>
<feColorMatrix type="matrix" values="0 0 0 0 0 0 0 0 0 0 0 0 0 0 0 0 0 0 0.1 0"/>
<feBlend mode="normal" in2="BackgroundImageFix" result="effect1_dropShadow_1114_20"/>
<feBlend mode="normal" in="SourceGraphic" in2="effect1_dropShadow_1114_20" result="shape"/>
</filter>
<linearGradient id="paint0_linear_1114_20" x1="87" y1="15.5" x2="362" y2="200" gradientUnits="userSpaceOnUse">
<stop stop-color="#FFDDF8"/>
<stop offset="1" stop-color="#FF477E"/>
</linearGradient>
<linearGradient id="paint1_linear_1114_20" x1="117.093" y1="52.3662" x2="117.093" y2="219.851" gradientUnits="userSpaceOnUse">
<stop stop-color="#DCC1FF"/>
<stop offset="1" stop-color="#FF477E"/>
</linearGradient>
</defs>
</svg>
