<svg width="312" height="216" viewBox="0 0 312 216" fill="none" xmlns="http://www.w3.org/2000/svg">
<rect x="41.5479" width="270.376" height="181.561" rx="9.55394" fill="url(#paint0_linear_1124_54)"/>
<g filter="url(#filter0_df_1124_54)">
<rect x="10" y="30.3224" width="270.602" height="171.623" rx="9.55394" fill="white" fill-opacity="0.95" shape-rendering="crispEdges"/>
</g>
<rect x="33" y="64" width="44.4612" height="31.2209" rx="5.15539" fill="#FF477E"/>
<path fill-rule="evenodd" clip-rule="evenodd" d="M43.311 74.3108C43.7374 74.6026 44.1711 75.0455 44.1711 75.4731V83.0124C44.1711 83.4344 43.773 84.0322 43.4099 84.2706H47.2478C49.7309 84.168 51.2373 83.2716 51.4173 81.3917C51.5439 80.0733 50.8472 79.048 49.1356 78.4699C49.9896 78.1449 50.4485 77.4378 50.4903 76.4616C50.5628 74.7832 48.6091 74.3108 47.3805 74.3108H43.311ZM45.6935 78.3477V75.204H46.8712C48.2074 75.204 48.8371 75.8596 48.8365 76.848C48.8358 77.8365 47.9328 78.3477 46.8048 78.3477H45.6929H45.6935ZM46.9492 83.3109H45.6935V79.2409H47.1163C49.2358 79.2409 49.8772 80.5157 49.7635 81.557C49.6498 82.5983 48.7547 83.3103 46.9492 83.3103V83.3109ZM54.7968 74.3108H52.7111C53.175 74.8268 53.3771 75.0978 53.3771 75.8976V82.7685C53.3771 83.5598 53.0263 84.0451 52.5231 84.3891H55.2981C54.8859 84.1379 54.4424 83.6439 54.4424 82.75V76.6803C55.8443 78.5528 57.2462 80.4254 58.6482 82.2985C59.4431 83.3386 60.3646 84.2196 61.4391 84.9101V75.8614C61.4391 74.9552 61.8047 74.61 62.2931 74.3108H59.5875C60.0777 74.6745 60.3376 75.0855 60.3376 75.8258V81.8851L54.7968 74.3108ZM63.8289 84.3891C64.3904 84.0168 64.6755 83.58 64.6755 83.0124V75.8159C64.6755 74.9651 64.4298 74.7728 63.9481 74.3108H67.1507C66.5978 74.6223 66.2101 75.2575 66.2101 75.8159V82.9927C66.2101 83.5432 66.5357 84.0475 66.9781 84.3891H63.8283H63.8289Z" fill="#FEFFFF"/>
<rect x="81.8413" y="64.015" width="81.4553" height="31.3203" rx="5.15539" fill="#FF477E"/>
<path fill-rule="evenodd" clip-rule="evenodd" d="M94.7757 79.7031C94.8822 79.8948 95.7236 80.7576 95.8727 80.9173L97.0231 82.089C97.4279 82.6002 97.6941 82.8346 97.6835 83.7399C97.6835 84.3897 97.1403 84.9436 96.7888 85.1672C96.4373 85.3909 96.3308 85.3909 95.8514 85.3909C95.468 85.3909 95.0739 85.3909 94.6904 85.3909C94.3176 85.3909 94.062 85.2098 93.8916 85.0288C93.6253 84.7412 93.6146 84.6453 93.6146 84.1341C93.6146 83.8891 93.5933 75.123 93.6146 74.8567C93.6466 74.5478 93.9022 74.2922 94.094 74.175C94.3922 73.9939 94.5946 73.9407 95.0206 73.9407C95.8514 73.9407 96.416 73.8448 97.0231 74.2602C97.545 74.6117 97.8326 75.123 97.822 75.7834C97.822 76.5183 97.4172 76.9763 97.087 77.3811C96.5864 77.9882 94.8928 79.3409 94.765 79.7137L94.7757 79.7031ZM98.919 73.9407C99.1853 73.9194 100.165 73.9087 100.378 73.9513C101.081 74.1004 101.859 74.6756 101.869 75.4638C101.869 76.0816 101.795 76.2307 101.507 76.6142C101.135 77.1041 100.155 78.0628 99.6433 78.4995C99.4303 78.6805 98.5249 79.5326 98.5356 79.6818L102.008 83.2393C102.402 83.6547 104 85.1779 104.085 85.3909H99.0149C99.0575 85.2844 99.164 85.1459 99.2386 85.0394C99.5049 84.6347 99.6433 84.2512 99.6433 83.7399C99.654 82.6322 99.196 82.1209 98.5249 81.4392L96.8633 79.6818C97.1616 79.3196 96.9698 79.5113 97.3852 79.0853C97.7474 78.7125 98.2693 78.3184 98.5569 77.9988C98.7273 77.8071 98.919 77.6047 99.0682 77.3704C99.3984 76.8591 99.6007 76.3585 99.5262 75.5703C99.4303 74.4306 98.9723 74.2602 98.8977 73.93L98.919 73.9407ZM102.732 73.9407C104.213 73.9194 105.139 73.8022 105.118 75.8686L105.076 77.8604C105.054 79.9374 105.076 82.0783 105.076 84.1767L100.623 79.6605C100.666 79.5326 101.049 79.1385 101.145 79.0533L101.752 78.4995C101.869 78.3823 101.944 78.3397 102.051 78.2225C102.381 77.8817 102.487 77.8604 102.913 77.3278C103.371 76.742 103.446 76.4544 103.446 75.5384C103.446 74.5478 102.849 74.2922 102.722 73.9407H102.732ZM94.5733 72.5347C93.636 72.5879 92.7838 73.1525 92.443 73.9726C92.2087 74.5371 92.1661 74.8034 92.1661 75.4851V80.8641C92.1661 82.0464 92.1341 83.2713 92.1661 84.4429C92.198 85.4868 92.933 86.2217 93.6146 86.5732C94.1153 86.8289 94.4987 86.8289 95.1378 86.8289H104.085C105.118 86.8289 105.864 86.062 106.205 85.3909C106.471 84.8797 106.471 84.5175 106.471 83.8678V74.9206C106.471 74.3774 106.247 73.9194 106.002 73.5998C105.757 73.2803 105.448 73.014 105.012 72.7903C104.49 72.524 104.138 72.524 103.499 72.524H96.3414C95.7662 72.524 95.1271 72.5134 94.5733 72.5347Z" fill="#FEFFFF"/>
<path fill-rule="evenodd" clip-rule="evenodd" d="M122.204 83.2608H123.961L123.95 78.489C124.036 78.5635 125.133 80.779 125.175 80.8749L126.4 83.2715H128.754V76.1244C128.563 76.1031 127.157 76.1031 127.029 76.1244L126.997 80.811C126.933 80.7471 125.708 78.244 125.538 77.8819L124.653 76.1137H122.204V83.2608Z" fill="#FEFFFF"/>
<path fill-rule="evenodd" clip-rule="evenodd" d="M140.215 81.908V80.2145C140.513 80.1719 141.259 80.2145 141.535 80.2997C141.908 80.4062 142.217 80.5979 142.196 81.0559C142.175 81.5033 141.919 81.7163 141.535 81.8228C141.259 81.8974 140.513 81.94 140.204 81.8974L140.215 81.908ZM140.215 78.9363V77.4664C140.534 77.4451 141.141 77.4451 141.418 77.509C141.77 77.5942 142.025 77.7859 142.015 78.2014C142.004 78.9576 140.726 79.0002 140.215 78.9363V78.9363ZM138.308 83.2608C138.574 83.2927 140.556 83.2608 141.003 83.2608C142.473 83.2608 144.337 82.9199 144.102 81.0027C144.039 80.4594 143.762 80.0121 143.314 79.7671C143.101 79.6499 142.984 79.6819 142.782 79.618C142.782 79.4689 142.846 79.5647 143.165 79.373C144.252 78.7126 144.134 77.051 143.112 76.4332C142.43 76.0285 141.749 76.103 140.875 76.103C140.534 76.103 138.468 76.0817 138.319 76.1137V83.2501L138.308 83.2608Z" fill="#FEFFFF"/>
<path fill-rule="evenodd" clip-rule="evenodd" d="M110.508 80.2571C110.721 80.2145 111.595 80.2571 111.808 80.2891C112.191 80.3743 112.447 80.5767 112.447 81.0134C112.447 81.4394 112.383 81.6099 111.946 81.7696C111.573 81.9081 110.934 81.94 110.497 81.9081V80.2571H110.508ZM110.508 77.4771C110.742 77.4345 111.467 77.4771 111.701 77.5304C112.095 77.6156 112.266 77.7647 112.266 78.2121C112.266 78.6275 111.999 78.7659 111.648 78.8724C111.413 78.9364 110.742 79.0003 110.497 78.947V77.4878L110.508 77.4771ZM108.591 83.2715C110.189 83.2076 113.533 83.6549 114.215 82.1318C114.364 81.7909 114.385 81.3329 114.353 80.9069C114.3 80.2678 113.714 79.7246 113.086 79.65C112.958 79.6393 113.001 79.6606 112.969 79.5861C113.011 79.5222 112.958 79.5648 113.075 79.5328C113.118 79.5222 113.139 79.5222 113.192 79.5009C113.277 79.4689 113.341 79.437 113.416 79.3944C113.767 79.1813 114.172 78.7233 114.172 78.2547C114.172 77.4878 114.183 76.9339 113.395 76.4759C112.702 76.0711 112.063 76.1244 111.168 76.1244C110.274 76.1244 109.443 76.1457 108.591 76.1244V83.2821V83.2715Z" fill="#FEFFFF"/>
<path fill-rule="evenodd" clip-rule="evenodd" d="M146.435 77.4769C147.191 77.4769 148.544 77.4023 148.267 78.5207C148.107 79.1385 147.117 79.0959 146.435 79.0852V77.6367V77.4769ZM144.528 83.2712H146.435V80.4593C146.797 80.3954 147.266 80.4593 147.479 80.651C147.905 80.9918 148.075 81.7694 148.278 82.3339C148.331 82.483 148.384 82.6428 148.427 82.8026C148.459 82.9304 148.523 83.1967 148.576 83.2925H150.514C150.536 83.0476 149.705 80.896 149.524 80.4273C149.3 79.8628 149.066 79.9693 148.917 79.7243C149.503 79.6604 150.131 79.0107 150.195 78.3929C150.291 77.4236 150.078 76.8697 149.439 76.5183C148.757 76.1455 148.043 76.1455 147.17 76.1455C146.296 76.1455 145.402 76.1242 144.528 76.1455V83.2925V83.2712Z" fill="#FEFFFF"/>
<path fill-rule="evenodd" clip-rule="evenodd" d="M129.393 83.2605H131.3V80.0437C131.545 80.1609 133.217 82.9303 133.526 83.2179C133.622 83.3031 133.803 83.2711 133.962 83.2711C134.282 83.2711 135.731 83.2924 135.922 83.2711C135.912 83.0581 134.815 81.6734 134.644 81.4604C134.186 80.8639 133.717 80.2994 133.281 79.6922C133.1 79.4366 133.121 79.4686 133.313 79.2129L135.049 77.0294C135.177 76.8696 135.667 76.2731 135.731 76.1347H133.472C133.366 76.1666 132.929 76.7951 132.855 76.9016C132.599 77.2531 132.333 77.5939 132.077 77.9454C131.971 78.0839 131.353 78.936 131.289 78.9679V76.124H129.382V83.2605H129.393Z" fill="#FEFFFF"/>
<path fill-rule="evenodd" clip-rule="evenodd" d="M118.049 77.6152C118.124 77.6684 118.603 79.4472 118.678 79.6709C118.731 79.852 118.859 80.2141 118.869 80.3845H117.112L117.559 78.9998C117.644 78.7655 117.708 78.5418 117.783 78.3075C117.825 78.1903 117.857 78.0625 117.9 77.956C117.943 77.8388 117.964 77.6578 118.038 77.6152H118.049ZM114.183 83.2604C114.651 83.2817 115.365 83.2604 115.855 83.2604C116.089 83.2604 116.079 83.1965 116.174 83.0154C116.387 82.6 116.505 82.1953 116.643 81.7373C116.909 81.7053 118.646 81.7266 119.061 81.7266C119.242 81.7266 119.295 81.7053 119.381 81.8544C119.487 82.0355 119.636 82.6213 119.711 82.8557C119.87 83.3137 119.934 83.2498 120.201 83.2498H121.958L119.242 76.1027H116.931C116.59 76.6459 116.451 77.2637 116.206 77.8601C115.759 78.9572 115.29 80.3313 114.843 81.4603C114.715 81.8012 114.204 82.9515 114.183 83.2498V83.2604Z" fill="#FEFFFF"/>
<path fill-rule="evenodd" clip-rule="evenodd" d="M152.986 83.2713V76.1135H151.068V83.2713H152.986Z" fill="#FEFFFF"/>
<rect x="125.345" y="99.7675" width="50.5384" height="31.4479" rx="5.63893" fill="#FF477E"/>
<path d="M154.887 110.915C152.881 110.915 151.09 111.955 151.09 113.876C151.09 116.077 154.267 116.23 154.267 117.337C154.267 117.801 153.733 118.218 152.823 118.218C151.528 118.218 150.561 117.637 150.561 117.637L150.146 119.576C150.146 119.576 151.26 120.068 152.74 120.068C154.933 120.068 156.657 118.978 156.657 117.024C156.657 114.697 153.465 114.549 153.465 113.521C153.465 113.156 153.903 112.756 154.812 112.756C155.838 112.756 156.676 113.179 156.676 113.179L157.08 111.307C157.08 111.307 156.169 110.915 154.885 110.915H154.887V110.915ZM136.54 111.057L136.492 111.34C136.492 111.34 137.337 111.495 138.096 111.803C139.073 112.155 139.145 112.362 139.309 113L141.104 119.921H143.51L147.219 111.057H144.817L142.434 117.084L141.462 111.977C141.373 111.393 140.922 111.059 140.368 111.059H136.54V111.057V111.057ZM148.184 111.057L146.299 119.922H148.588L150.465 111.057H148.184H148.184ZM160.956 111.057C160.403 111.057 160.111 111.353 159.897 111.87L156.542 119.922H158.943L159.408 118.58H162.334L162.617 119.922H164.735L162.887 111.057H160.956V111.057ZM161.268 113.453L161.98 116.778H160.072L161.266 113.453H161.268V113.453Z" fill="#FDFEFF"/>
<rect x="167.615" y="64" width="72.6842" height="31.2152" rx="4.55221" fill="#FF477E"/>
<path d="M181.042 82.1122C181.042 81.4488 181.03 80.8912 180.994 80.3934H182.251L182.311 81.2481H182.346C182.63 80.7972 183.152 80.2631 184.125 80.2631C184.884 80.2631 185.476 80.6904 185.725 81.3303H185.75C185.952 81.0109 186.188 80.7738 186.46 80.6082C186.78 80.3828 187.149 80.2631 187.622 80.2631C188.583 80.2631 189.555 80.9147 189.555 82.7661V86.1673H188.133V82.9786C188.133 82.0194 187.801 81.4488 187.101 81.4488C186.603 81.4488 186.236 81.8046 186.082 82.2202C186.047 82.3611 186.01 82.5395 186.01 82.7051V86.1673H184.587V82.8236C184.587 82.0194 184.268 81.4488 183.592 81.4488C183.047 81.4488 182.68 81.8762 182.548 82.2789C182.489 82.4209 182.465 82.5877 182.465 82.7532V86.1685H181.042V82.1133V82.1122Z" fill="#FEFFFF"/>
<path d="M195.095 84.7795C195.095 85.3008 195.118 85.8103 195.177 86.1661H193.861L193.767 85.5262H193.731C193.375 85.9771 192.77 86.2964 192.025 86.2964C190.863 86.2964 190.211 85.4558 190.211 84.5776C190.211 83.1183 191.502 82.3845 193.637 82.3962V82.3011C193.637 81.9219 193.482 81.2938 192.463 81.2938C191.893 81.2938 191.3 81.4723 190.909 81.72L190.625 80.7714C191.052 80.5107 191.799 80.2618 192.712 80.2618C194.562 80.2618 195.095 81.4359 195.095 82.6921V84.7795V84.7795ZM193.672 83.346C192.64 83.3214 191.657 83.5468 191.657 84.4238C191.657 84.9932 192.026 85.2539 192.487 85.2539C193.067 85.2539 193.495 84.8735 193.625 84.459C193.66 84.3522 193.672 84.2348 193.672 84.1397V83.346V83.346Z" fill="#FEFFFF"/>
<path d="M196.102 82.1121C196.102 81.4488 196.089 80.8911 196.055 80.3933H197.333L197.404 81.2598H197.44C197.689 80.8089 198.317 80.2618 199.277 80.2618C200.286 80.2618 201.328 80.9134 201.328 82.7402V86.1661H199.87V82.9069C199.87 82.0769 199.562 81.4476 198.768 81.4476C198.188 81.4476 197.784 81.8632 197.63 82.3011C197.583 82.4315 197.572 82.6087 197.572 82.7743V86.1649H196.102V82.1098V82.1121Z" fill="#FEFFFF"/>
<path d="M207.65 78.0734V84.5411C207.65 85.134 207.675 85.7751 207.698 86.1648H206.395L206.335 85.2526H206.31C205.966 85.8925 205.267 86.2952 204.426 86.2952C203.05 86.2952 201.961 85.1223 201.961 83.3448C201.948 81.4123 203.157 80.2618 204.543 80.2618C205.337 80.2618 205.906 80.594 206.167 81.0225H206.192V78.0745H207.649L207.65 78.0734ZM206.193 82.7989C206.193 82.6815 206.181 82.5382 206.157 82.4197C206.026 81.8514 205.565 81.3888 204.9 81.3888C203.963 81.3888 203.442 82.2189 203.442 83.2978C203.442 84.3768 203.965 85.1235 204.89 85.1235C205.481 85.1235 206.004 84.7208 206.146 84.0915C206.182 83.9612 206.194 83.8191 206.194 83.6653V82.8L206.193 82.7989Z" fill="#FEFFFF"/>
<path d="M208.683 86.1659V80.3932H210.154V86.1659H208.683Z" fill="#FEFFFF"/>
<path d="M211.183 82.2542C211.183 81.4723 211.171 80.9134 211.136 80.3921H212.404L212.451 81.4934H212.499C212.783 80.6763 213.458 80.3921 214.077 80.3921C214.218 80.3921 214.301 80.3687 214.42 80.3921V81.673C214.302 81.6495 214.172 81.6261 213.993 81.6261C213.294 81.6261 212.819 82.0757 212.689 82.7273C212.666 82.8576 212.642 83.0126 212.642 83.1793V86.1661H211.184V82.2542H211.183Z" fill="#FEFFFF"/>
<path d="M215.096 86.1659V80.3932H216.565V86.1659H215.096Z" fill="#FEFFFF"/>
<path d="M225.714 74.2871C224.986 73.457 224.213 73.8327 223.599 74.138C223.34 74.266 221.474 75.3238 221.474 75.3238C220.451 75.7452 219.654 75.285 219.342 74.8976C219.31 74.8565 219.282 74.8189 219.261 74.7814L219.188 74.6557C219.076 74.4667 218.942 74.253 218.777 74.0429C218.689 73.929 218.59 73.814 218.482 73.7071C217.782 73.0003 216.664 72.5061 214.795 73.4042C213.909 73.9173 211.026 75.5644 211.026 75.5644C209.943 76.0106 209.113 75.467 208.844 75.069C208.833 75.0537 208.821 75.0361 208.813 75.0209L208.778 74.961L208.594 74.6628C208.516 74.5395 208.429 74.4127 208.33 74.2824C208.241 74.1685 208.142 74.0558 208.036 73.9466C207.341 73.2445 206.229 72.7503 204.375 73.632C203.255 74.2718 200.649 75.7617 200.649 75.7617C199.577 76.3745 198.741 76.8512 198.741 76.8512L199.728 78.0628C200.144 78.4585 200.924 79.1077 202.131 78.5606C202.131 78.5606 205.464 76.6305 205.477 76.6246C208.327 75.0608 209.733 76.5553 210.354 77.5509C210.375 77.5814 210.394 77.6155 210.413 77.646H210.414C210.421 77.6589 210.427 77.6707 210.433 77.6824L210.503 77.7975C210.805 78.2565 211.284 78.5535 211.854 78.5395C212.167 78.5336 212.381 78.4303 212.691 78.2589L215.916 76.3886C215.916 76.3886 215.919 76.3863 215.923 76.3863C218.807 74.8037 220.237 76.3957 220.849 77.3913C220.896 77.477 220.951 77.5591 221.005 77.6366C221.308 78.0464 221.725 78.3152 222.254 78.3023C222.604 78.2953 222.996 78.0851 223.054 78.0464L226.921 75.8145C226.921 75.8145 226.526 75.2181 225.712 74.2883L225.714 74.2871Z" fill="url(#paint1_linear_1124_54)"/>
<rect x="33" y="99.7675" width="88.0687" height="30.9254" rx="4.55221" fill="#FF477E"/>
<path d="M81.8027 121.061C81.7967 120.471 81.5827 120.052 81.1563 119.817C81.0267 119.752 80.8625 119.701 80.6651 119.665C80.4677 119.628 80.2492 119.61 80.0111 119.61H79.1538V122.574H80.0111C80.6319 122.577 81.087 122.461 81.3672 122.217C81.5089 122.099 81.6158 121.943 81.6912 121.744C81.765 121.545 81.8027 121.317 81.8042 121.061M79.1538 116.857V119.396H80.0458C81.0825 119.39 81.6204 118.959 81.6249 118.098C81.6324 117.26 81.0659 116.851 79.969 116.857H79.1538V116.857ZM78.4501 122.17C78.4547 122.075 78.4607 121.923 78.4652 121.715V117.713L78.4516 117.325C78.4486 117.242 78.4441 117.186 78.4411 117.156C78.4366 117.124 78.4306 117.099 78.4215 117.073C78.3914 116.975 78.3251 116.904 78.2256 116.862C78.1337 116.823 77.9966 116.805 77.8203 116.803V116.668H80.1046C80.4376 116.668 80.7374 116.689 81.0041 116.732C81.2723 116.775 81.4878 116.833 81.652 116.909C82.1297 117.135 82.3662 117.517 82.3632 118.058C82.3692 118.834 81.8584 119.329 80.8037 119.457L80.6274 119.485C80.8655 119.494 81.1864 119.573 81.3356 119.607C81.4832 119.642 81.6294 119.696 81.771 119.77C82.3316 120.052 82.6073 120.501 82.6013 121.125C82.6043 121.881 82.2351 122.371 81.4878 122.604C81.325 122.651 81.1186 122.687 80.8715 122.714C80.6229 122.741 80.3532 122.755 80.0624 122.755H77.8203V122.618C78.084 122.615 78.2663 122.574 78.3462 122.479C78.3793 122.448 78.4034 122.411 78.4185 122.371C78.4351 122.33 78.4441 122.259 78.4501 122.164" fill="white"/>
<path d="M83.7152 121.65C83.7182 121.928 83.786 122.152 83.9201 122.322C84.0557 122.493 84.2365 122.582 84.4625 122.585C84.69 122.582 84.9055 122.523 85.1059 122.408C85.3063 122.294 85.4645 122.139 85.579 121.949C85.6483 121.827 85.6996 121.671 85.7312 121.48C85.7629 121.292 85.7779 121.057 85.7779 120.776V120.341C85.3711 120.377 85.0788 120.415 84.8678 120.46C84.6539 120.505 84.4655 120.569 84.3028 120.654C83.9141 120.847 83.7182 121.183 83.7152 121.652M85.8713 122.589C85.8246 122.497 85.7915 122.389 85.7779 122.11L85.7734 122.027L85.7192 122.089C85.6544 122.161 85.5896 122.226 85.5278 122.28C85.4645 122.334 85.3907 122.392 85.3093 122.447C85.1285 122.58 84.9552 122.673 84.788 122.728C84.6207 122.782 84.4339 122.808 84.2245 122.806C83.8598 122.808 83.5796 122.722 83.3807 122.551C83.2692 122.45 83.1803 122.325 83.117 122.172C83.0537 122.018 83.0205 121.854 83.019 121.678C83.0236 121.025 83.4229 120.606 84.241 120.419C84.458 120.368 84.6855 120.327 84.9266 120.296C85.1677 120.264 85.4419 120.237 85.7478 120.216L85.7794 119.648C85.7794 119.454 85.7704 119.295 85.7508 119.176C85.7312 119.054 85.7011 118.949 85.6559 118.86C85.5353 118.623 85.2867 118.51 84.9296 118.51C84.3555 118.507 84.0451 118.78 84.012 119.324C84.009 119.411 84.0015 119.472 83.9894 119.508C83.9789 119.542 83.9593 119.568 83.9336 119.588C83.8764 119.627 83.786 119.648 83.6549 119.649C83.3731 119.652 83.2677 119.57 83.2722 119.429C83.2737 119.282 83.3234 119.14 83.4213 119.003C83.5193 118.866 83.6564 118.745 83.8327 118.643C84.1506 118.467 84.5574 118.376 85.0562 118.375C85.6016 118.376 85.9678 118.5 86.1682 118.736C86.2495 118.836 86.3098 118.959 86.3475 119.107C86.3867 119.255 86.4062 119.444 86.4062 119.674V119.722L86.4017 119.945L86.3897 120.532L86.3806 121.338L86.3716 121.729C86.3716 121.913 86.3806 122.053 86.3927 122.209C86.4047 122.362 86.459 122.533 86.5825 122.577C86.7091 122.624 86.8327 122.643 87.0662 122.645C87.238 122.642 87.3691 122.622 87.4595 122.583C87.5619 122.539 87.6237 122.447 87.6523 122.316C87.6779 122.19 87.69 121.995 87.687 121.735V119.458C87.693 119.148 87.6569 118.929 87.568 118.816C87.4821 118.705 87.3208 118.658 87.1009 118.659V118.537L88.3153 118.45V119.417L88.3786 119.304C88.5579 118.985 88.7628 118.757 88.9903 118.622C89.2179 118.486 89.5011 118.418 89.8447 118.421C90.36 118.414 90.7186 118.587 90.928 118.932C91.0049 119.048 91.0606 119.187 91.0938 119.35C91.1269 119.512 91.1435 119.72 91.1435 119.975V121.735C91.1405 121.997 91.151 122.193 91.1767 122.319C91.2023 122.45 91.264 122.542 91.3665 122.583C91.4509 122.619 91.6483 122.637 91.817 122.642C91.9752 122.637 92.0973 122.618 92.1801 122.582C92.2796 122.538 92.3399 122.446 92.3655 122.315C92.3896 122.187 92.4016 121.994 92.3971 121.733V117.596C92.4001 117.358 92.3911 117.183 92.367 117.07C92.3429 116.951 92.2811 116.871 92.1817 116.835C92.0958 116.805 91.9647 116.79 91.7944 116.79V116.669L93.0586 116.604C93.042 116.885 93.0315 117.172 93.0224 117.465C93.0149 117.77 93.0104 118.037 93.0104 118.266V121.046L94.4026 119.521C94.6 119.303 94.707 119.121 94.7085 118.973C94.7175 118.768 94.5126 118.676 94.1736 118.659V118.539H95.9832V118.661C95.8747 118.673 95.7798 118.694 95.6999 118.721C95.6126 118.751 95.5237 118.794 95.4317 118.849C95.3383 118.905 95.26 118.958 95.1982 119.005C95.1334 119.053 95.0581 119.121 94.9722 119.209C94.8848 119.298 94.7582 119.432 94.5925 119.612L94.1329 120.106L95.3353 121.998C95.4724 122.223 95.599 122.381 95.715 122.47C95.825 122.556 95.9666 122.612 96.1369 122.637V122.761H95.037C95.0068 122.699 94.9646 122.621 94.9119 122.523L94.7371 122.203L94.603 121.962L93.7125 120.511L93.0134 121.295V121.733C93.0089 121.992 93.0194 122.187 93.045 122.315C93.0706 122.446 93.1324 122.538 93.2334 122.582C93.3223 122.619 93.4534 122.639 93.6236 122.643V122.762H89.9049V122.643C90.1566 122.636 90.3298 122.595 90.3992 122.503C90.4263 122.467 90.4474 122.428 90.4624 122.381C90.4775 122.336 90.4866 122.277 90.4911 122.205C90.4956 122.148 90.5016 122.066 90.5061 121.958C90.5122 121.849 90.5152 121.775 90.5167 121.735V120.026C90.5182 119.606 90.473 119.292 90.3781 119.095C90.2334 118.783 89.9712 118.626 89.6006 118.625C89.1862 118.625 88.8562 118.821 88.6121 119.209C88.5202 119.357 88.4479 119.524 88.3967 119.711C88.3454 119.898 88.3183 120.082 88.3183 120.263V121.733C88.3153 121.995 88.3259 122.191 88.3515 122.318C88.3771 122.449 88.4389 122.541 88.5413 122.582C88.6302 122.619 88.7643 122.637 88.9376 122.64V122.759H87.1084C86.9457 122.765 86.6368 122.773 86.4846 122.771C86.3234 122.768 86.2465 122.752 86.1004 122.741C85.9708 122.704 85.9165 122.669 85.8728 122.585" fill="white"/>
<path d="M47.9391 119.961H48.3309C48.801 119.96 49.1476 119.848 49.369 119.627C49.4896 119.499 49.5815 119.332 49.6433 119.124C49.7051 118.917 49.7367 118.681 49.7367 118.414C49.7337 117.411 49.2952 116.909 48.4198 116.907H47.9376V119.961H47.9391ZM47.9391 120.198V121.712C47.9361 121.955 47.9497 122.136 47.9813 122.253C48.013 122.371 48.0793 122.449 48.1847 122.487C48.2887 122.524 48.4484 122.547 48.6639 122.55V122.763H46.2832V122.55C46.4851 122.547 46.6358 122.524 46.7337 122.487C46.8317 122.449 46.8934 122.371 46.9221 122.253C46.9507 122.136 46.9643 121.955 46.9612 121.712V117.73C46.9643 117.487 46.9522 117.307 46.9236 117.189C46.8965 117.07 46.8347 116.992 46.7428 116.952C46.6493 116.913 46.5062 116.891 46.3133 116.883V116.671H48.5795C49.3434 116.668 49.904 116.802 50.258 117.075C50.6136 117.347 50.7899 117.777 50.7854 118.364C50.7884 119.189 50.466 119.729 49.8211 119.984C49.6523 120.049 49.4384 120.102 49.1777 120.139C48.917 120.177 48.6262 120.197 48.3083 120.197H47.9391V120.198Z" fill="white"/>
<path d="M51.8549 120.218H53.5862C53.5787 119.968 53.5651 119.766 53.5455 119.612C53.5259 119.458 53.4943 119.323 53.4521 119.202C53.306 118.776 53.0814 118.565 52.7786 118.568C52.4396 118.571 52.1849 118.809 52.0192 119.282C51.977 119.404 51.9423 119.54 51.9167 119.686C51.8911 119.832 51.87 120.008 51.8549 120.216M54.6153 120.451H51.8474C51.8504 120.747 51.867 120.995 51.8986 121.194C51.9303 121.393 51.9815 121.577 52.0508 121.741C52.2814 122.278 52.6354 122.544 53.1161 122.544C53.3888 122.543 53.6344 122.463 53.8559 122.303C54.0774 122.145 54.2612 121.916 54.4074 121.619L54.6033 121.749C54.4104 122.133 54.1754 122.415 53.8966 122.594C53.6194 122.773 53.2803 122.862 52.8795 122.861C52.2497 122.853 51.6696 122.651 51.3065 122.256C50.9434 121.862 50.758 121.321 50.7505 120.635C50.758 119.944 50.9373 119.398 51.2869 118.996C51.6365 118.593 52.197 118.387 52.7997 118.38C53.2005 118.38 53.5877 118.471 53.862 118.654C54.1362 118.835 54.3396 119.101 54.4707 119.451C54.5129 119.567 54.546 119.699 54.5671 119.85C54.5897 119.999 54.6033 120.2 54.6108 120.45" fill="white"/>
<path d="M54.7934 118.498L56.3288 118.393C56.3378 118.546 56.3439 118.675 56.3469 118.779C56.3514 118.884 56.3529 118.974 56.3529 119.054V119.298C56.6859 118.688 57.0897 118.381 57.5613 118.376C57.7647 118.381 57.932 118.44 58.0586 118.554C58.1866 118.669 58.2514 118.818 58.2559 118.997C58.2529 119.146 58.1972 119.267 58.0902 119.357C57.9832 119.446 57.8416 119.494 57.6683 119.496C57.4589 119.502 57.3308 119.416 57.2841 119.235C57.2539 119.122 57.2223 119.047 57.1907 119.006C57.159 118.965 57.1108 118.947 57.0475 118.949H57.0309C56.8697 118.962 56.7175 119.09 56.5729 119.333C56.5081 119.454 56.4584 119.588 56.4267 119.734C56.3936 119.88 56.377 120.049 56.377 120.24V121.751C56.374 121.992 56.386 122.17 56.4117 122.285C56.4388 122.399 56.4991 122.473 56.5925 122.509C56.6859 122.544 56.8321 122.564 57.0309 122.568V122.764H54.7603V122.568C54.9456 122.568 55.0827 122.55 55.1716 122.514C55.2605 122.478 55.3193 122.401 55.3449 122.285C55.372 122.167 55.3841 121.989 55.381 121.751V119.488C55.3886 119.152 55.3554 118.934 55.2801 118.833C55.2047 118.732 55.0435 118.687 54.7934 118.697V118.501V118.498Z" fill="white"/>
<path d="M60.0789 118.393L60.0865 119.202C60.418 118.658 60.8911 118.382 61.5074 118.378C62.1342 118.375 62.5214 118.66 62.6676 119.235C62.8454 118.938 63.0473 118.72 63.2748 118.583C63.5023 118.444 63.7675 118.375 64.0719 118.378C64.5525 118.381 64.9066 118.539 65.1341 118.851C65.223 118.97 65.2863 119.115 65.324 119.286C65.3617 119.458 65.3797 119.681 65.3797 119.954V121.751C65.3767 121.989 65.3888 122.167 65.4159 122.285C65.443 122.401 65.5003 122.478 65.5892 122.515C65.6781 122.552 65.8152 122.57 66.0005 122.57V122.765H63.7871V122.57C63.9649 122.57 64.096 122.553 64.1819 122.515C64.2677 122.479 64.3235 122.402 64.3491 122.285C64.3747 122.169 64.3868 121.991 64.3838 121.751V119.963C64.3853 119.533 64.3325 119.225 64.2256 119.033C64.1186 118.842 63.9453 118.75 63.7057 118.753C63.4179 118.747 63.1768 118.898 62.9795 119.202C62.8092 119.457 62.7248 119.732 62.7263 120.028V121.751C62.7233 121.989 62.7354 122.167 62.761 122.285C62.7866 122.401 62.8439 122.478 62.9297 122.515C63.0171 122.552 63.1497 122.57 63.329 122.57V122.765H61.1397V122.57C61.316 122.57 61.4486 122.553 61.5345 122.515C61.6204 122.479 61.6761 122.402 61.7017 122.285C61.7273 122.169 61.7394 121.991 61.7364 121.751V119.954C61.7409 119.145 61.5209 118.745 61.0749 118.753C60.7977 118.764 60.5656 118.895 60.3788 119.146C60.192 119.399 60.094 119.714 60.0865 120.092V121.75C60.0835 121.991 60.0955 122.17 60.1211 122.286C60.1468 122.402 60.2025 122.479 60.2884 122.514C60.3743 122.55 60.5054 122.567 60.6832 122.565V122.761H58.4697V122.565C58.6551 122.565 58.7922 122.548 58.8811 122.514C58.97 122.478 59.0287 122.402 59.0544 122.286C59.0815 122.17 59.0935 121.991 59.0905 121.75V119.479C59.0996 119.146 59.0664 118.932 58.9911 118.833C58.9157 118.733 58.7485 118.688 58.4863 118.694V118.498L60.0789 118.393V118.393Z" fill="white"/>
<path d="M71.8073 118.767V121.494C71.8073 121.672 71.8134 121.818 71.8269 121.935C71.8405 122.051 71.8601 122.149 71.8887 122.229C71.9234 122.32 71.9761 122.393 72.0484 122.448C72.1208 122.502 72.2006 122.529 72.288 122.531C72.4628 122.528 72.6526 122.443 72.8606 122.277L72.9751 122.481C72.6466 122.757 72.2744 122.892 71.8556 122.889C71.405 122.882 71.0977 122.732 70.9319 122.44C70.9003 122.375 70.8747 122.302 70.8566 122.219C70.8385 122.136 70.8264 122.024 70.8189 121.883C70.8114 121.741 70.8084 121.551 70.8084 121.313V118.765H70.3428V118.521C70.5206 118.514 70.6712 118.477 70.7948 118.408C70.9184 118.34 71.0268 118.233 71.1188 118.087C71.1911 117.976 71.2498 117.854 71.2966 117.718C71.3433 117.582 71.3839 117.415 71.4201 117.213L71.8284 117.172C71.8224 117.279 71.8179 117.389 71.8149 117.501C71.8119 117.612 71.8089 117.745 71.8073 117.902C71.8058 118.058 71.8043 118.259 71.8043 118.503H72.7928V118.765H71.8043L71.8073 118.767Z" fill="white"/>
<path d="M68.8183 121.034V120.406C68.2337 120.445 67.8193 120.554 67.5737 120.73C67.3296 120.906 67.2106 121.182 67.2181 121.557C67.2211 121.851 67.2814 122.084 67.3989 122.256C67.5164 122.429 67.6777 122.517 67.8796 122.52C68.0453 122.52 68.199 122.47 68.3406 122.375C68.4808 122.282 68.5923 122.149 68.6721 121.98C68.7249 121.876 68.7625 121.751 68.7851 121.602C68.8077 121.453 68.8198 121.263 68.8183 121.034M70.3416 122.591V122.764C70.102 122.779 70.0056 122.779 69.7555 122.779C69.5566 122.779 69.3502 122.776 69.1784 122.711C69.0729 122.672 69.0142 122.637 68.9343 122.555C68.8785 122.467 68.8439 122.461 68.8258 122.219C68.6149 122.446 68.3949 122.613 68.1674 122.722C67.9383 122.829 67.6927 122.881 67.429 122.88C67.0373 122.875 66.7299 122.767 66.5084 122.555C66.2869 122.342 66.1754 122.05 66.1709 121.679C66.1709 120.978 66.6048 120.543 67.4773 120.373C67.8705 120.296 68.3165 120.245 68.8168 120.218V119.687C68.8213 119.262 68.7761 118.967 68.6827 118.804C68.5892 118.64 68.4205 118.562 68.1809 118.569C67.9248 118.563 67.7424 118.657 67.634 118.846C67.5948 118.913 67.5647 118.987 67.5466 119.072C67.5285 119.157 67.5134 119.274 67.5029 119.426C67.4968 119.573 67.4547 119.675 67.3763 119.737C67.298 119.799 67.1744 119.829 67.0041 119.827C66.6259 119.824 66.4346 119.699 66.4331 119.452C66.4331 119.307 66.4798 119.169 66.5672 119.038C66.6546 118.907 66.7796 118.791 66.9393 118.691C67.2799 118.482 67.7259 118.378 68.2789 118.381C68.8409 118.378 69.2432 118.489 69.4873 118.715C69.5973 118.819 69.6771 118.95 69.7299 119.112C69.7811 119.273 69.8067 119.478 69.8067 119.729L69.7992 120.439L69.7916 121.149C69.7856 121.382 69.7826 121.528 69.7841 121.59C69.7811 121.886 69.7901 122.099 69.8112 122.235C69.8323 122.371 69.8564 122.431 69.9453 122.505C70.1005 122.594 70.2346 122.592 70.3431 122.592" fill="white"/>
<path d="M75.8505 121.034V120.404C75.2659 120.444 74.8515 120.552 74.6059 120.728C74.3603 120.905 74.2428 121.18 74.2503 121.556C74.2533 121.849 74.3136 122.083 74.4311 122.255C74.5487 122.428 74.7099 122.515 74.9118 122.518C75.0775 122.518 75.2312 122.469 75.3729 122.374C75.513 122.28 75.6245 122.148 75.7043 121.979C75.7571 121.875 75.7948 121.75 75.8174 121.601C75.84 121.452 75.852 121.262 75.8505 121.033M77.3738 122.589V122.763C77.1343 122.778 77.0378 122.779 76.7877 122.779C76.5888 122.779 76.3824 122.776 76.2106 122.711C76.1051 122.672 76.0464 122.637 75.9665 122.553C75.9108 122.466 75.8761 122.461 75.858 122.217C75.6471 122.445 75.4271 122.612 75.1996 122.72C74.9706 122.827 74.725 122.88 74.4613 122.879C74.0695 122.874 73.7621 122.766 73.5406 122.555C73.3191 122.342 73.2076 122.05 73.2031 121.679C73.2031 120.979 73.6371 120.543 74.5095 120.373C74.9028 120.296 75.3488 120.245 75.849 120.218V119.687C75.8535 119.262 75.8083 118.967 75.7149 118.803C75.6215 118.639 75.4527 118.562 75.2131 118.569C74.957 118.563 74.7747 118.657 74.6662 118.846C74.627 118.913 74.5969 118.987 74.5788 119.072C74.5607 119.157 74.5456 119.274 74.5351 119.427C74.5291 119.571 74.4869 119.675 74.4085 119.737C74.3302 119.799 74.2066 119.829 74.0364 119.827C73.6582 119.824 73.4668 119.699 73.4653 119.452C73.4653 119.308 73.512 119.169 73.5994 119.038C73.6868 118.907 73.8119 118.791 73.9716 118.693C74.3121 118.483 74.7581 118.379 75.3111 118.382C75.8731 118.379 76.2769 118.491 76.5195 118.717C76.6295 118.821 76.7094 118.952 76.7621 119.113C76.8133 119.274 76.8389 119.479 76.8389 119.729L76.8314 120.441L76.8239 121.15C76.8178 121.384 76.8148 121.53 76.8163 121.592C76.8133 121.887 76.8224 122.101 76.8435 122.237C76.8646 122.372 76.8887 122.433 76.9776 122.506C77.1328 122.595 77.2669 122.592 77.3753 122.594" fill="white"/>
<path d="M94.1928 112.545L94.1763 112.86L100.211 119.94L100.428 119.975L100.455 119.961L100.562 119.766L97.9869 111.15L97.5499 110.856L94.1928 112.545Z" fill="#FDFEFF"/>
<path d="M94.1763 112.86L100.211 119.94L100.428 119.975L95.9768 113.204L94.1763 112.86Z" fill="#F0F8F4"/>
<path d="M97.5496 110.856L96.0112 112.667L96.6396 112.941L97.9866 111.15L97.5496 110.856Z" fill="#FEFEFF"/>
<path d="M94.1763 112.86L95.9768 113.204L96.0115 112.667L94.1913 112.545L94.1763 112.86Z" fill="#FDFEFF"/>
<path d="M96.6392 112.941L100.454 119.961L100.561 119.764L97.9877 111.15L96.6392 112.941Z" fill="#FDFEFF"/>
<path d="M103.876 110.684L107.778 112.479L107.786 112.985L101.382 122.686L101.09 122.763L101.046 122.743L100.956 122.524L103.537 110.874L103.876 110.684Z" fill="#FDFEFF"/>
<path d="M105.187 113.207L101.09 122.762L101.382 122.686L107.786 112.985L105.187 113.207Z" fill="#FDFEFF"/>
<path d="M103.536 110.874L100.955 122.524L101.047 122.743L104.45 112.801L103.536 110.874Z" fill="#FDFEFF"/>
<path d="M105.039 112.515L105.187 113.207L107.786 112.985L107.778 112.479L105.039 112.515Z" fill="#FEFEFF"/>
<path d="M103.537 110.874L104.449 112.8L105.039 112.515L103.876 110.684L103.537 110.874Z" fill="#FDFEFF"/>
<path d="M97.9155 107.924L98.0722 107.626L103.067 107.571L103.39 107.906L100.997 115.904L100.845 115.991H100.84L100.676 115.881L97.9155 107.924Z" fill="white"/>
<path d="M97.9155 107.924L99.8517 108.888L100.212 108.462L98.0707 107.625L97.9155 107.924Z" fill="white"/>
<path d="M97.9155 107.924L100.676 115.881L100.839 115.991L99.8517 108.888L97.9155 107.924Z" fill="white"/>
<path d="M100.791 108.89L100.845 115.991L100.997 115.904L103.39 107.906L100.791 108.89Z" fill="white"/>
<path d="M103.067 107.571L100.211 108.462L100.79 108.888L103.389 107.906L103.067 107.571Z" fill="#F5FBF9"/>
<rect x="33" y="136.835" width="57.8355" height="31.2152" rx="4.55221" fill="#FF477E"/>
<path fill-rule="evenodd" clip-rule="evenodd" d="M70.6806 150.957V151.983C70.6806 151.983 70.3311 152.667 69.1232 152.841C67.9153 153.009 67.9153 152.257 67.9989 152.067C68.09 151.869 68.3711 151.603 69.3663 151.444C70.4299 151.269 70.6806 150.965 70.6806 150.965V150.957ZM72.1012 149.97V153.958H70.7945L70.7793 153.312C70.3691 153.7 69.7614 154.08 68.9181 154.103C66.2896 154.179 65.2868 151.269 68.4623 150.403C69.2144 150.198 69.9513 150.259 70.3387 150.053C70.597 149.917 70.673 149.681 70.4983 149.453C69.8373 148.602 68.2876 148.952 67.8697 150.137L66.5555 149.81C66.8821 148.488 67.9457 147.896 69.2144 147.774C70.5742 147.645 72.0936 148.382 72.0936 149.962L72.1012 149.97ZM47.2366 149.248C46.2794 149.248 45.5045 150.023 45.5045 150.988C45.5045 151.953 46.2794 152.728 47.2366 152.728C48.1938 152.728 48.9687 151.953 48.9687 150.988C48.9687 150.023 48.1938 149.248 47.2366 149.248V149.248ZM50.6248 147.972H48.9611V148.633C48.4293 148.169 47.738 147.888 46.9783 147.888C45.2918 147.888 43.9243 149.294 43.9243 151.026C43.9243 152.758 45.2918 154.163 46.9859 154.163C47.7456 154.163 48.4369 153.882 48.9687 153.419V154.019C48.9687 154.931 48.2849 155.675 47.3581 155.675C46.5908 155.675 45.9679 155.523 45.4437 154.915L44.3649 155.88C45.2386 156.837 46.1426 157.126 47.3809 157.126C49.1966 157.126 50.6248 155.895 50.6248 153.837V147.972ZM79.9108 147.873H78.1331L76.3707 151.725L74.3423 147.866H72.557L75.4894 153.358L73.9397 156.549H75.7249L79.9108 147.873ZM62.5291 149.248C63.4863 149.248 64.2612 150.023 64.2612 150.988C64.2612 151.953 63.4863 152.728 62.5291 152.728C61.5719 152.728 60.797 151.953 60.797 150.988C60.797 150.023 61.5719 149.248 62.5291 149.248V149.248ZM59.1409 147.972H60.8046V148.633C61.3364 148.169 62.0277 147.888 62.7874 147.888C64.4739 147.888 65.849 149.294 65.849 151.026C65.849 152.758 64.4815 154.163 62.7874 154.163C62.0353 154.163 61.3364 153.882 60.8046 153.419V156.556H59.1409V147.972ZM54.7119 149.203C55.7527 149.203 56.5959 150.015 56.5959 151.026C56.5959 152.036 55.7527 152.849 54.7119 152.849C53.6711 152.849 52.8279 152.036 52.8279 151.026C52.8279 150.015 53.6711 149.203 54.7119 149.203V149.203ZM54.7119 147.767C56.5656 147.767 58.0773 149.225 58.0773 151.026C58.0773 152.826 56.5732 154.277 54.7119 154.277C52.8507 154.277 51.3465 152.819 51.3465 151.026C51.3465 149.233 52.8583 147.767 54.7119 147.767Z" fill="#FDFEFF"/>
<rect x="94.7803" y="136.835" width="52.9916" height="31.2163" rx="3.9019" fill="#FF477E"/>
<path d="M136.645 153.839V152.775V150.65H133.456H131.33V149.587H136.645V147.46H131.33H128.142V149.587V150.65V152.775H131.33H133.456V153.839H128.142V155.964H133.456H136.645V153.839Z" fill="#FEFFFF"/>
<path d="M127.08 147.46H124.954V155.964H127.08V147.46Z" fill="#FEFFFF"/>
<path d="M115.388 147.46V149.587H121.765V150.65H117.514H115.388V152.775V155.964H117.514V152.808L120.703 155.964H123.892L120.565 152.775H121.765H123.892V150.65V149.587V147.46H121.765H115.388Z" fill="#FEFFFF"/>
<path d="M109.009 152.775H111.135V150.649H109.009V152.775ZM109.54 151.18H110.603V152.243H109.54V151.18V151.18Z" fill="#FEFFFF"/>
<path d="M107.946 147.46H106.086C106.016 147.46 105.948 147.488 105.898 147.539C105.848 147.589 105.82 147.656 105.82 147.726V155.698C105.82 155.768 105.848 155.837 105.898 155.886C105.949 155.936 106.016 155.964 106.086 155.964H111.135V153.838H107.946V147.46Z" fill="#FEFFFF"/>
<path d="M114.058 147.46H109.009V149.587H112.197V152.775H114.324V147.727C114.324 147.657 114.296 147.589 114.245 147.54C114.195 147.489 114.128 147.462 114.058 147.462V147.46Z" fill="#FEFFFF"/>
<path d="M114.325 153.839H112.199V158.622H114.325V153.839Z" fill="#FEFFFF"/>
<path d="M108.787 146.265H104.801C104.73 146.265 104.662 146.293 104.613 146.343C104.563 146.393 104.535 146.46 104.535 146.531V150.517H105.066V147.062C105.066 146.992 105.094 146.923 105.145 146.874C105.195 146.825 105.262 146.796 105.332 146.796H108.786V146.265H108.787Z" fill="#FEFFFF"/>
<path d="M137.486 153.173V156.628C137.486 156.698 137.458 156.766 137.408 156.815C137.358 156.865 137.291 156.893 137.22 156.893H133.766V157.425H137.752C137.822 157.425 137.89 157.397 137.939 157.346C137.989 157.296 138.017 157.229 138.017 157.159V153.173H137.486Z" fill="#FEFFFF"/>
<rect x="179.972" y="99.7675" width="77.0285" height="31.2152" rx="4.55221" fill="#FF477E"/>
<path d="M200.759 117.018C200.527 116.99 200.424 116.985 200.268 116.985C199.017 116.985 198.385 117.414 198.385 118.264C198.385 118.788 198.692 119.118 199.178 119.118C200.079 119.118 200.726 118.264 200.763 117.023L200.759 117.018ZM202.363 120.756H200.532L200.575 119.888C200.018 120.572 199.272 120.903 198.262 120.903C197.069 120.903 196.248 119.968 196.248 118.613C196.248 116.569 197.673 115.38 200.122 115.38C200.372 115.38 200.692 115.403 201.023 115.446C201.089 115.167 201.108 115.049 201.108 114.903C201.108 114.346 200.726 114.138 199.692 114.138C198.612 114.129 197.72 114.398 197.356 114.516C197.38 114.379 197.663 112.628 197.663 112.628C198.763 112.302 199.489 112.184 200.306 112.184C202.202 112.184 203.203 113.034 203.203 114.643C203.203 115.073 203.137 115.606 203.023 116.305C202.83 117.518 202.42 120.124 202.363 120.761V120.756Z" fill="white"/>
<path d="M195.327 120.756H193.119L194.383 112.826L191.557 120.756H190.057L189.868 112.869L188.542 120.756H186.475L188.202 110.438H191.373L191.566 116.215L193.501 110.438H197.031L195.327 120.756Z" fill="white"/>
<path d="M235.525 117.018C235.294 116.99 235.19 116.985 235.034 116.985C233.784 116.985 233.151 117.414 233.151 118.264C233.151 118.788 233.458 119.118 233.944 119.118C234.841 119.118 235.492 118.264 235.53 117.023L235.525 117.018ZM237.129 120.756H235.303L235.346 119.888C234.789 120.572 234.043 120.903 233.033 120.903C231.835 120.903 231.019 119.968 231.019 118.613C231.019 116.569 232.444 115.38 234.893 115.38C235.143 115.38 235.463 115.403 235.794 115.446C235.86 115.167 235.879 115.049 235.879 114.903C235.879 114.346 235.497 114.138 234.463 114.138C233.383 114.129 232.491 114.398 232.127 114.516C232.151 114.379 232.434 112.628 232.434 112.628C233.534 112.302 234.26 112.184 235.072 112.184C236.969 112.184 237.969 113.034 237.969 114.643C237.969 115.073 237.903 115.606 237.79 116.305C237.601 117.518 237.186 120.124 237.134 120.761L237.129 120.756Z" fill="white"/>
<path d="M212.172 120.629C211.568 120.818 211.097 120.903 210.587 120.903C209.459 120.903 208.841 120.256 208.841 119.062C208.827 118.689 209.002 117.717 209.143 116.824C209.271 116.041 210.101 111.098 210.101 111.098H212.295L212.04 112.368H213.366L213.069 114.384H211.738C211.484 115.979 211.12 117.967 211.116 118.231C211.116 118.665 211.347 118.854 211.87 118.854C212.121 118.854 212.319 118.831 212.465 118.774L212.172 120.629V120.629Z" fill="white"/>
<path d="M218.897 120.558C218.142 120.789 217.415 120.903 216.646 120.898C214.187 120.898 212.909 119.614 212.909 117.155C212.909 114.289 214.537 112.175 216.75 112.175C218.557 112.175 219.713 113.355 219.713 115.21C219.713 115.823 219.633 116.428 219.444 117.273H215.075C214.928 118.491 215.707 118.996 216.981 118.996C217.764 118.996 218.472 118.835 219.26 118.467L218.897 120.553V120.558ZM217.665 115.583C217.679 115.408 217.896 114.086 216.646 114.086C215.947 114.086 215.447 114.62 215.244 115.583H217.665Z" fill="white"/>
<path d="M203.689 115.016C203.689 116.078 204.203 116.81 205.369 117.358C206.26 117.778 206.402 117.901 206.402 118.283C206.402 118.807 206.006 119.043 205.133 119.043C204.472 119.043 203.863 118.939 203.156 118.713C203.156 118.713 202.868 120.563 202.854 120.653C203.354 120.761 203.802 120.865 205.151 120.903C207.478 120.903 208.554 120.015 208.554 118.099C208.554 116.947 208.105 116.272 206.996 115.762C206.072 115.337 205.963 115.243 205.963 114.851C205.963 114.398 206.331 114.167 207.044 114.167C207.478 114.167 208.068 114.214 208.629 114.294L208.941 112.349C208.37 112.26 207.501 112.184 206.996 112.184C204.529 112.184 203.675 113.473 203.679 115.026L203.689 115.016Z" fill="white"/>
<path d="M229.632 112.401C230.245 112.401 230.816 112.562 231.604 112.958L231.967 110.721C231.642 110.593 230.505 109.847 229.542 109.847C228.065 109.847 226.815 110.579 225.937 111.792C224.658 111.367 224.13 112.226 223.483 113.081L222.912 113.213C222.955 112.93 222.997 112.651 222.983 112.368H220.954C220.676 114.964 220.19 117.594 219.803 120.195L219.704 120.761H221.912C222.28 118.368 222.483 116.834 222.606 115.795L223.436 115.332C223.559 114.87 223.95 114.714 224.729 114.733C224.63 115.281 224.573 115.856 224.573 116.451C224.573 119.194 226.055 120.903 228.428 120.903C229.042 120.903 229.566 120.822 230.377 120.601L230.764 118.25C230.033 118.609 229.433 118.778 228.891 118.778C227.607 118.778 226.833 117.83 226.833 116.267C226.833 113.997 227.99 112.406 229.636 112.406L229.632 112.401Z" fill="white"/>
<path d="M248.317 110.438L247.826 113.416C247.222 112.623 246.576 112.047 245.722 112.047C244.608 112.047 243.594 112.892 242.933 114.134C242.008 113.94 241.055 113.614 241.055 113.614V113.624C241.126 112.93 241.159 112.505 241.15 112.359H239.121C238.847 114.955 238.356 117.584 237.969 120.185L237.87 120.752H240.078C240.376 118.816 240.607 117.207 240.772 115.932C241.527 115.248 241.905 114.658 242.664 114.695C242.329 115.512 242.131 116.451 242.131 117.419C242.131 119.515 243.193 120.898 244.797 120.898C245.604 120.898 246.227 120.62 246.831 119.973L246.727 120.752H248.817L250.497 110.438H248.322H248.317ZM245.557 118.816C244.806 118.816 244.424 118.259 244.424 117.164C244.424 115.517 245.137 114.346 246.137 114.346C246.897 114.346 247.307 114.922 247.307 115.989C247.307 117.65 246.585 118.816 245.557 118.816V118.816Z" fill="white"/>
<defs>
<filter id="filter0_df_1124_54" x="0" y="24.3224" width="290.602" height="191.623" filterUnits="userSpaceOnUse" color-interpolation-filters="sRGB">
<feFlood flood-opacity="0" result="BackgroundImageFix"/>
<feColorMatrix in="SourceAlpha" type="matrix" values="0 0 0 0 0 0 0 0 0 0 0 0 0 0 0 0 0 0 127 0" result="hardAlpha"/>
<feOffset dy="4"/>
<feGaussianBlur stdDeviation="5"/>
<feComposite in2="hardAlpha" operator="out"/>
<feColorMatrix type="matrix" values="0 0 0 0 0 0 0 0 0 0 0 0 0 0 0 0 0 0 0.1 0"/>
<feBlend mode="normal" in2="BackgroundImageFix" result="effect1_dropShadow_1124_54"/>
<feBlend mode="normal" in="SourceGraphic" in2="effect1_dropShadow_1124_54" result="shape"/>
<feGaussianBlur stdDeviation="0.5" result="effect2_foregroundBlur_1124_54"/>
</filter>
<linearGradient id="paint0_linear_1124_54" x1="233.326" y1="4.30865e-06" x2="176.736" y2="181.561" gradientUnits="userSpaceOnUse">
<stop stop-color="#FF94E0"/>
<stop offset="1" stop-color="#FF477E"/>
</linearGradient>
<linearGradient id="paint1_linear_1124_54" x1="201.104" y1="81.6684" x2="231.21" y2="67.7652" gradientUnits="userSpaceOnUse">
<stop stop-color="#FEFFFF"/>
<stop offset="0.22" stop-color="#FEFFFF"/>
<stop offset="0.39" stop-color="#FEFFFF"/>
<stop offset="0.53" stop-color="#FEFFFF"/>
<stop offset="0.65" stop-color="#FEFFFF"/>
<stop offset="0.76" stop-color="#FEFFFF"/>
<stop offset="0.8" stop-color="#FEFFFF"/>
<stop offset="1" stop-color="#FEFFFF"/>
</linearGradient>
</defs>
</svg>
