<svg width="313" height="216" viewBox="0 0 313 216" fill="none" xmlns="http://www.w3.org/2000/svg">
<rect x="42.0205" width="270.376" height="181.561" rx="9.55394" fill="url(#paint0_linear_1091_90)"/>
<g filter="url(#filter0_d_1091_90)">
<rect x="10.4727" y="30.3224" width="270.602" height="171.623" rx="9.55394" fill="white" fill-opacity="0.95" shape-rendering="crispEdges"/>
</g>
<g filter="url(#filter1_d_1091_90)">
<rect x="31.8066" y="59.932" width="106.243" height="124.404" rx="9.0806" fill="white"/>
</g>
<rect x="40.8872" y="69.0126" width="89.3531" height="67.5597" rx="7.26448" fill="#F7F7F7"/>
<rect x="40.8872" y="140.931" width="89.3531" height="8.35415" rx="4.17708" fill="#F6F6F6"/>
<rect x="41.2505" y="153.644" width="66.1068" height="8.35415" rx="4.17708" fill="#F6F6F6"/>
<rect x="41.2505" y="167.446" width="42.134" height="8.35415" rx="4.17708" fill="#F6F6F6"/>
<g filter="url(#filter2_d_1091_90)">
<rect x="142.59" y="59.932" width="106.243" height="124.404" rx="9.0806" fill="white"/>
</g>
<rect x="151.67" y="69.0126" width="89.3531" height="67.5597" rx="7.26448" fill="#F7F7F7"/>
<rect x="151.67" y="140.931" width="89.3531" height="8.35415" rx="4.17708" fill="#F6F6F6"/>
<rect x="152.034" y="153.644" width="66.1068" height="8.35415" rx="4.17708" fill="#F6F6F6"/>
<rect x="152.034" y="167.446" width="42.134" height="8.35415" rx="4.17708" fill="#F6F6F6"/>
<rect x="168.923" y="105.335" width="54.4836" height="17.2531" rx="3.63224" fill="#FF477E"/>
<path d="M178.532 116.783V112.969H180.15C180.375 112.969 180.579 113.024 180.76 113.133C180.945 113.238 181.091 113.384 181.196 113.569C181.305 113.754 181.36 113.963 181.36 114.195C181.36 114.431 181.305 114.644 181.196 114.833C181.091 115.022 180.945 115.172 180.76 115.285C180.579 115.394 180.375 115.448 180.15 115.448H179.349V116.783H178.532ZM179.338 114.713H180.057C180.145 114.713 180.223 114.691 180.292 114.648C180.361 114.6 180.415 114.539 180.455 114.462C180.499 114.386 180.52 114.299 180.52 114.201C180.52 114.103 180.499 114.017 180.455 113.945C180.415 113.868 180.361 113.81 180.292 113.77C180.223 113.727 180.145 113.705 180.057 113.705H179.338V114.713ZM182.048 116.783V113.901H182.821V116.783H182.048ZM182.429 113.307C182.28 113.307 182.164 113.271 182.08 113.198C181.997 113.126 181.955 113.022 181.955 112.888C181.955 112.764 181.997 112.664 182.08 112.588C182.168 112.508 182.284 112.468 182.429 112.468C182.578 112.468 182.694 112.506 182.778 112.583C182.861 112.655 182.903 112.757 182.903 112.888C182.903 113.015 182.86 113.117 182.772 113.193C182.689 113.269 182.574 113.307 182.429 113.307ZM183.653 116.783V112.752H184.427V116.783H183.653ZM185.277 116.783V113.901H186.051V116.783H185.277ZM185.659 113.307C185.51 113.307 185.394 113.271 185.31 113.198C185.227 113.126 185.185 113.022 185.185 112.888C185.185 112.764 185.227 112.664 185.31 112.588C185.397 112.508 185.513 112.468 185.659 112.468C185.808 112.468 185.924 112.506 186.007 112.583C186.091 112.655 186.133 112.757 186.133 112.888C186.133 113.015 186.089 113.117 186.002 113.193C185.918 113.269 185.804 113.307 185.659 113.307ZM186.877 116.783V112.752H187.64V114.49L187.488 114.555C187.528 114.424 187.598 114.306 187.7 114.201C187.805 114.092 187.931 114.005 188.076 113.939C188.221 113.874 188.374 113.841 188.534 113.841C188.752 113.841 188.933 113.885 189.079 113.972C189.227 114.059 189.338 114.192 189.411 114.37C189.487 114.544 189.525 114.76 189.525 115.018V116.783H188.752V115.078C188.752 114.947 188.733 114.838 188.697 114.751C188.661 114.664 188.605 114.6 188.528 114.56C188.456 114.517 188.365 114.499 188.256 114.506C188.169 114.506 188.087 114.52 188.011 114.549C187.938 114.575 187.874 114.613 187.82 114.664C187.769 114.715 187.727 114.773 187.695 114.838C187.666 114.904 187.651 114.974 187.651 115.051V116.783H187.27C187.186 116.783 187.112 116.783 187.046 116.783C186.981 116.783 186.925 116.783 186.877 116.783ZM192.215 116.783V113.171H192.989V116.783H192.215ZM191.676 114.593V113.901H193.577V114.593H191.676ZM195.423 116.838C195.11 116.838 194.838 116.774 194.605 116.647C194.373 116.52 194.191 116.346 194.06 116.124C193.93 115.903 193.864 115.648 193.864 115.361C193.864 115.14 193.901 114.936 193.973 114.751C194.046 114.566 194.148 114.406 194.278 114.272C194.409 114.134 194.563 114.028 194.741 113.956C194.923 113.879 195.119 113.841 195.33 113.841C195.526 113.841 195.708 113.878 195.875 113.95C196.042 114.019 196.185 114.119 196.305 114.25C196.429 114.377 196.523 114.528 196.588 114.702C196.654 114.876 196.683 115.067 196.676 115.274L196.67 115.514H194.355L194.229 115.04H196.033L195.946 115.138V115.018C195.938 114.92 195.906 114.831 195.847 114.751C195.793 114.671 195.722 114.609 195.635 114.566C195.548 114.522 195.45 114.5 195.341 114.5C195.181 114.5 195.045 114.531 194.932 114.593C194.823 114.655 194.74 114.746 194.682 114.866C194.623 114.985 194.594 115.131 194.594 115.301C194.594 115.476 194.631 115.626 194.703 115.754C194.78 115.881 194.885 115.981 195.019 116.053C195.157 116.122 195.319 116.157 195.504 116.157C195.631 116.157 195.748 116.137 195.853 116.097C195.958 116.057 196.071 115.988 196.191 115.89L196.561 116.407C196.456 116.502 196.34 116.582 196.213 116.647C196.085 116.709 195.955 116.756 195.82 116.789C195.686 116.821 195.553 116.838 195.423 116.838ZM197.242 116.783V113.901H197.988L198.005 114.451L197.89 114.473C197.93 114.379 197.983 114.293 198.048 114.217C198.114 114.141 198.19 114.075 198.277 114.021C198.368 113.967 198.462 113.925 198.56 113.896C198.658 113.863 198.757 113.847 198.855 113.847C199.004 113.847 199.138 113.87 199.258 113.917C199.378 113.965 199.479 114.039 199.563 114.141C199.646 114.239 199.712 114.37 199.759 114.533L199.639 114.522L199.677 114.435C199.725 114.348 199.784 114.27 199.857 114.201C199.93 114.128 200.012 114.066 200.102 114.016C200.193 113.961 200.288 113.919 200.386 113.89C200.484 113.861 200.58 113.847 200.674 113.847C200.9 113.847 201.087 113.892 201.236 113.983C201.384 114.07 201.495 114.203 201.568 114.381C201.644 114.559 201.682 114.777 201.682 115.034V116.783H200.909V115.089C200.909 114.958 200.891 114.851 200.854 114.767C200.818 114.684 200.765 114.622 200.696 114.582C200.627 114.539 200.538 114.517 200.429 114.517C200.346 114.517 200.268 114.531 200.195 114.56C200.126 114.586 200.064 114.624 200.01 114.675C199.959 114.722 199.919 114.778 199.89 114.844C199.861 114.909 199.846 114.982 199.846 115.062V116.783H199.073V115.083C199.073 114.964 199.053 114.862 199.013 114.778C198.976 114.691 198.924 114.626 198.855 114.582C198.786 114.539 198.7 114.517 198.599 114.517C198.515 114.517 198.437 114.531 198.364 114.56C198.295 114.586 198.235 114.624 198.184 114.675C198.134 114.722 198.092 114.778 198.059 114.844C198.03 114.909 198.016 114.98 198.016 115.056V116.783H197.242ZM203.498 116.838C203.258 116.838 203.042 116.772 202.849 116.642C202.657 116.511 202.504 116.333 202.392 116.108C202.279 115.883 202.223 115.625 202.223 115.334C202.223 115.043 202.279 114.787 202.392 114.566C202.508 114.341 202.664 114.164 202.86 114.037C203.057 113.907 203.28 113.841 203.531 113.841C203.672 113.841 203.801 113.863 203.917 113.907C204.037 113.947 204.141 114.003 204.228 114.075C204.319 114.148 204.395 114.232 204.457 114.326C204.518 114.421 204.562 114.522 204.588 114.631L204.424 114.604V113.901H205.192V116.783H204.413V116.091L204.588 116.075C204.558 116.177 204.511 116.273 204.446 116.364C204.38 116.455 204.299 116.536 204.201 116.609C204.106 116.678 203.999 116.734 203.879 116.778C203.759 116.818 203.632 116.838 203.498 116.838ZM203.71 116.168C203.856 116.168 203.983 116.133 204.092 116.064C204.201 115.995 204.284 115.899 204.342 115.775C204.404 115.648 204.435 115.501 204.435 115.334C204.435 115.171 204.404 115.027 204.342 114.904C204.284 114.78 204.201 114.684 204.092 114.615C203.983 114.542 203.856 114.506 203.71 114.506C203.569 114.506 203.443 114.542 203.334 114.615C203.229 114.684 203.146 114.78 203.084 114.904C203.022 115.027 202.991 115.171 202.991 115.334C202.991 115.501 203.022 115.648 203.084 115.775C203.146 115.899 203.229 115.995 203.334 116.064C203.443 116.133 203.569 116.168 203.71 116.168ZM207.704 116.783V113.901H208.478V116.783H207.704ZM208.085 113.307C207.936 113.307 207.82 113.271 207.737 113.198C207.653 113.126 207.611 113.022 207.611 112.888C207.611 112.764 207.653 112.664 207.737 112.588C207.824 112.508 207.94 112.468 208.085 112.468C208.234 112.468 208.351 112.506 208.434 112.583C208.518 112.655 208.559 112.757 208.559 112.888C208.559 113.015 208.516 113.117 208.429 113.193C208.345 113.269 208.231 113.307 208.085 113.307ZM209.304 116.783V113.901H210.045L210.067 114.49L209.914 114.555C209.954 114.424 210.025 114.306 210.127 114.201C210.232 114.092 210.357 114.005 210.503 113.939C210.648 113.874 210.8 113.841 210.96 113.841C211.178 113.841 211.36 113.885 211.505 113.972C211.654 114.059 211.765 114.192 211.837 114.37C211.914 114.544 211.952 114.76 211.952 115.018V116.783H211.178V115.078C211.178 114.947 211.16 114.838 211.124 114.751C211.087 114.664 211.031 114.6 210.955 114.56C210.882 114.517 210.791 114.499 210.682 114.506C210.595 114.506 210.514 114.52 210.437 114.549C210.365 114.575 210.301 114.613 210.247 114.664C210.196 114.715 210.154 114.773 210.121 114.838C210.092 114.904 210.078 114.974 210.078 115.051V116.783H209.696C209.613 116.783 209.538 116.783 209.473 116.783C209.408 116.783 209.351 116.783 209.304 116.783ZM212.759 116.783V113.901H213.532V116.783H212.759ZM213.14 113.307C212.991 113.307 212.875 113.271 212.791 113.198C212.708 113.126 212.666 113.022 212.666 112.888C212.666 112.764 212.708 112.664 212.791 112.588C212.879 112.508 212.995 112.468 213.14 112.468C213.289 112.468 213.405 112.506 213.489 112.583C213.572 112.655 213.614 112.757 213.614 112.888C213.614 113.015 213.57 113.117 213.483 113.193C213.4 113.269 213.285 113.307 213.14 113.307Z" fill="white"/>
<defs>
<filter id="filter0_d_1091_90" x="0.472656" y="24.3224" width="290.602" height="191.623" filterUnits="userSpaceOnUse" color-interpolation-filters="sRGB">
<feFlood flood-opacity="0" result="BackgroundImageFix"/>
<feColorMatrix in="SourceAlpha" type="matrix" values="0 0 0 0 0 0 0 0 0 0 0 0 0 0 0 0 0 0 127 0" result="hardAlpha"/>
<feOffset dy="4"/>
<feGaussianBlur stdDeviation="5"/>
<feComposite in2="hardAlpha" operator="out"/>
<feColorMatrix type="matrix" values="0 0 0 0 0 0 0 0 0 0 0 0 0 0 0 0 0 0 0.1 0"/>
<feBlend mode="normal" in2="BackgroundImageFix" result="effect1_dropShadow_1091_90"/>
<feBlend mode="normal" in="SourceGraphic" in2="effect1_dropShadow_1091_90" result="shape"/>
</filter>
<filter id="filter1_d_1091_90" x="13.6454" y="45.403" width="142.566" height="160.727" filterUnits="userSpaceOnUse" color-interpolation-filters="sRGB">
<feFlood flood-opacity="0" result="BackgroundImageFix"/>
<feColorMatrix in="SourceAlpha" type="matrix" values="0 0 0 0 0 0 0 0 0 0 0 0 0 0 0 0 0 0 127 0" result="hardAlpha"/>
<feOffset dy="3.63224"/>
<feGaussianBlur stdDeviation="9.0806"/>
<feComposite in2="hardAlpha" operator="out"/>
<feColorMatrix type="matrix" values="0 0 0 0 0 0 0 0 0 0 0 0 0 0 0 0 0 0 0.1 0"/>
<feBlend mode="normal" in2="BackgroundImageFix" result="effect1_dropShadow_1091_90"/>
<feBlend mode="normal" in="SourceGraphic" in2="effect1_dropShadow_1091_90" result="shape"/>
</filter>
<filter id="filter2_d_1091_90" x="124.429" y="45.403" width="142.566" height="160.727" filterUnits="userSpaceOnUse" color-interpolation-filters="sRGB">
<feFlood flood-opacity="0" result="BackgroundImageFix"/>
<feColorMatrix in="SourceAlpha" type="matrix" values="0 0 0 0 0 0 0 0 0 0 0 0 0 0 0 0 0 0 127 0" result="hardAlpha"/>
<feOffset dy="3.63224"/>
<feGaussianBlur stdDeviation="9.0806"/>
<feComposite in2="hardAlpha" operator="out"/>
<feColorMatrix type="matrix" values="0 0 0 0 0 0 0 0 0 0 0 0 0 0 0 0 0 0 0.1 0"/>
<feBlend mode="normal" in2="BackgroundImageFix" result="effect1_dropShadow_1091_90"/>
<feBlend mode="normal" in="SourceGraphic" in2="effect1_dropShadow_1091_90" result="shape"/>
</filter>
<linearGradient id="paint0_linear_1091_90" x1="233.799" y1="4.30865e-06" x2="177.209" y2="181.561" gradientUnits="userSpaceOnUse">
<stop stop-color="#FF94E0"/>
<stop offset="1" stop-color="#FF477E"/>
</linearGradient>
</defs>
</svg>
