<svg width="287" height="169" viewBox="0 0 287 169" fill="none" xmlns="http://www.w3.org/2000/svg">
<path fill-rule="evenodd" clip-rule="evenodd" d="M52.4799 101.12V13.1199H71.6799C72.9298 13.1199 71.8277 13.1255 73.838 15.1211L106.165 51.275C107.042 52.1511 107.229 52.656 108.074 53.5257C108.989 54.4683 109.217 54.7053 110.032 55.7273L132.562 80.8777C133.471 81.7716 133.667 82.2565 134.477 83.1224L189.197 144.242C189.999 145.15 190.193 145.564 191.122 146.478L201.28 158.079H102.72C101.762 156.269 100.961 156.072 99.7924 154.607L95.1163 149.364C94.3937 148.587 94.2898 148.224 93.5263 147.433L69.8374 120.882C69.2338 120.197 68.6861 119.802 68.0821 119.117L53.983 103.137C53.4671 102.535 52.4799 101.977 52.4799 101.12ZM150.08 84.1599H208.32V149.439L184.716 123.123C183.952 122.301 183.801 121.87 182.965 121.035C179.788 117.862 174.978 111.784 171.915 108.725L161.034 96.5658C160.204 95.732 160.045 95.2947 159.284 94.4761L150.08 84.1599ZM263.04 73.2798H151.68C152.668 71.805 153.947 71.009 155.277 69.8374C156.557 68.7107 157.533 67.4835 158.796 66.3156L186.326 40.7263C186.997 40.0807 187.422 39.6189 188.08 38.9597L212.083 16.5392C213.951 14.5772 213.33 15.7682 217.041 19.759C224.228 27.4908 234.044 39.6794 241.675 48.2449L244.88 52.0792C245.623 52.8775 245.812 53.1757 246.496 53.9841C249.374 57.3861 261.505 70.9879 263.04 73.2798ZM41.5998 21.12V37.44H25.5999L41.5998 21.12ZM138.24 70.7199C137.471 70.2051 136.87 69.6023 136.272 68.8475L99.7542 27.9258C98.948 27.0958 98.8112 26.6668 98.0062 25.8334C97.172 24.9698 96.7068 24.6062 96 23.6799L77.7294 3.23035C77.2286 2.63356 77.4369 2.23974 76.4799 2.23974H45.12C44.0413 2.23974 35.1893 12.0102 33.6797 13.5197L22.4799 25.0397C19.3848 28.1352 15.3608 31.6407 12.5741 34.9743C10.8578 37.0277 0.39685 46.8333 0 48.3197H41.5998V105.28C41.5998 106.101 42.6017 106.762 43.1237 107.276C45.6552 109.767 47.6889 112.734 50.1536 115.286C53.2675 118.511 55.962 122.014 59.1258 125.194C62.3856 128.469 68.013 135.444 71.4361 139.123L84.0249 153.095C86.6207 156.457 89.9951 160.027 92.8762 163.123C93.6408 163.945 94.0456 164.236 94.7199 165.12C95.3964 166.006 95.8088 166.292 96.5624 167.117C97.2503 167.87 97.5768 168.96 98.5599 168.96H219.2V84.1599H286.4C285.938 82.4296 281.368 77.9637 279.953 76.2066L255.123 47.2762C250.684 42.7158 246.949 37.5254 242.64 32.8758L227.594 15.3347C227.313 15.0187 227.216 14.9454 226.961 14.6574L221.807 8.63319C221.766 8.58444 221.706 8.51149 221.664 8.46311C221.622 8.41398 221.558 8.34367 221.515 8.29492L221.2 7.96008C220.309 6.98874 219.697 6.19538 218.805 5.19456C217.274 3.47525 216 1.28542 214.08 0C211.551 1.69323 207.948 5.42209 205.567 7.75973C205.519 7.80735 205.45 7.87237 205.4 7.91999L138.24 70.7199Z" fill="#FF477E"/>
</svg>
