<svg width="162" height="27" viewBox="0 0 162 27" fill="none" xmlns="http://www.w3.org/2000/svg">
<path d="M58.616 8.832V16.672C58.616 17.76 58.3013 18.608 57.672 19.216C57.0427 19.8133 56.2 20.112 55.144 20.112C54.0773 20.112 53.2133 19.8027 52.552 19.184C51.9013 18.5653 51.576 17.7013 51.576 16.592H53.816C53.8267 17.072 53.9387 17.4453 54.152 17.712C54.376 17.9787 54.696 18.112 55.112 18.112C55.5173 18.112 55.8267 17.984 56.04 17.728C56.2533 17.472 56.36 17.12 56.36 16.672V8.832H58.616ZM60.653 15.536C60.653 14.64 60.829 13.8453 61.181 13.152C61.5437 12.4587 62.029 11.9253 62.637 11.552C63.2557 11.1787 63.9437 10.992 64.701 10.992C65.3623 10.992 65.9383 11.1253 66.429 11.392C66.9303 11.6587 67.3303 11.9947 67.629 12.4V11.136H69.885V20H67.629V18.704C67.341 19.12 66.941 19.4667 66.429 19.744C65.9277 20.0107 65.3463 20.144 64.685 20.144C63.9383 20.144 63.2557 19.952 62.637 19.568C62.029 19.184 61.5437 18.6453 61.181 17.952C60.829 17.248 60.653 16.4427 60.653 15.536ZM67.629 15.568C67.629 15.024 67.5223 14.56 67.309 14.176C67.0957 13.7813 66.8077 13.4827 66.445 13.28C66.0823 13.0667 65.693 12.96 65.277 12.96C64.861 12.96 64.477 13.0613 64.125 13.264C63.773 13.4667 63.485 13.7653 63.261 14.16C63.0477 14.544 62.941 15.0027 62.941 15.536C62.941 16.0693 63.0477 16.5387 63.261 16.944C63.485 17.3387 63.773 17.6427 64.125 17.856C64.4877 18.0693 64.8717 18.176 65.277 18.176C65.693 18.176 66.0823 18.0747 66.445 17.872C66.8077 17.6587 67.0957 17.36 67.309 16.976C67.5223 16.5813 67.629 16.112 67.629 15.568ZM71.4967 15.536C71.4967 14.64 71.6727 13.8453 72.0247 13.152C72.3874 12.4587 72.8781 11.9253 73.4968 11.552C74.1154 11.1787 74.8034 10.992 75.5608 10.992C76.1368 10.992 76.6861 11.12 77.2088 11.376C77.7314 11.6213 78.1474 11.952 78.4568 12.368V8.16H80.7288V20H78.4568V18.688C78.1794 19.1253 77.7901 19.4773 77.2888 19.744C76.7874 20.0107 76.2061 20.144 75.5448 20.144C74.7981 20.144 74.1154 19.952 73.4968 19.568C72.8781 19.184 72.3874 18.6453 72.0247 17.952C71.6727 17.248 71.4967 16.4427 71.4967 15.536ZM78.4728 15.568C78.4728 15.024 78.3661 14.56 78.1528 14.176C77.9394 13.7813 77.6514 13.4827 77.2888 13.28C76.9261 13.0667 76.5368 12.96 76.1208 12.96C75.7048 12.96 75.3208 13.0613 74.9688 13.264C74.6168 13.4667 74.3288 13.7653 74.1048 14.16C73.8914 14.544 73.7848 15.0027 73.7848 15.536C73.7848 16.0693 73.8914 16.5387 74.1048 16.944C74.3288 17.3387 74.6168 17.6427 74.9688 17.856C75.3314 18.0693 75.7154 18.176 76.1208 18.176C76.5368 18.176 76.9261 18.0747 77.2888 17.872C77.6514 17.6587 77.9394 17.36 78.1528 16.976C78.3661 16.5813 78.4728 16.112 78.4728 15.568ZM84.0525 10.08C83.6578 10.08 83.3272 9.95733 83.0605 9.712C82.8045 9.456 82.6765 9.14133 82.6765 8.768C82.6765 8.39467 82.8045 8.08533 83.0605 7.84C83.3272 7.584 83.6578 7.456 84.0525 7.456C84.4472 7.456 84.7725 7.584 85.0285 7.84C85.2952 8.08533 85.4285 8.39467 85.4285 8.768C85.4285 9.14133 85.2952 9.456 85.0285 9.712C84.7725 9.95733 84.4472 10.08 84.0525 10.08ZM85.1565 11.136V20H82.9165V11.136H85.1565ZM89.6096 12.432C89.8976 12.0053 90.2923 11.6587 90.7936 11.392C91.3056 11.1253 91.887 10.992 92.5376 10.992C93.295 10.992 93.9776 11.1787 94.5856 11.552C95.2043 11.9253 95.6896 12.4587 96.0416 13.152C96.4043 13.8347 96.5856 14.6293 96.5856 15.536C96.5856 16.4427 96.4043 17.248 96.0416 17.952C95.6896 18.6453 95.2043 19.184 94.5856 19.568C93.9776 19.952 93.295 20.144 92.5376 20.144C91.8763 20.144 91.295 20.016 90.7936 19.76C90.303 19.4933 89.9083 19.152 89.6096 18.736V20H87.3696V8.16H89.6096V12.432ZM94.2976 15.536C94.2976 15.0027 94.1856 14.544 93.9616 14.16C93.7483 13.7653 93.4603 13.4667 93.0976 13.264C92.7456 13.0613 92.3616 12.96 91.9456 12.96C91.5403 12.96 91.1563 13.0667 90.7936 13.28C90.4416 13.4827 90.1536 13.7813 89.9296 14.176C89.7163 14.5707 89.6096 15.0347 89.6096 15.568C89.6096 16.1013 89.7163 16.5653 89.9296 16.96C90.1536 17.3547 90.4416 17.6587 90.7936 17.872C91.1563 18.0747 91.5403 18.176 91.9456 18.176C92.3616 18.176 92.7456 18.0693 93.0976 17.856C93.4603 17.6427 93.7483 17.3387 93.9616 16.944C94.1856 16.5493 94.2976 16.08 94.2976 15.536ZM106.453 15.376C106.453 15.696 106.432 15.984 106.389 16.24H99.9094C99.9627 16.88 100.187 17.3813 100.581 17.744C100.976 18.1067 101.461 18.288 102.037 18.288C102.869 18.288 103.461 17.9307 103.813 17.216H106.229C105.973 18.0693 105.483 18.7733 104.757 19.328C104.032 19.872 103.141 20.144 102.085 20.144C101.232 20.144 100.464 19.9573 99.7814 19.584C99.1094 19.2 98.5814 18.6613 98.1974 17.968C97.824 17.2747 97.6374 16.4747 97.6374 15.568C97.6374 14.6507 97.824 13.8453 98.1974 13.152C98.5707 12.4587 99.0934 11.9253 99.7654 11.552C100.437 11.1787 101.211 10.992 102.085 10.992C102.928 10.992 103.68 11.1733 104.341 11.536C105.013 11.8987 105.531 12.416 105.893 13.088C106.267 13.7493 106.453 14.512 106.453 15.376ZM104.133 14.736C104.123 14.16 103.915 13.7013 103.509 13.36C103.104 13.008 102.608 12.832 102.021 12.832C101.467 12.832 100.997 13.0027 100.613 13.344C100.24 13.6747 100.011 14.1387 99.9254 14.736H104.133ZM110.328 12.512C110.616 12.0427 110.99 11.6747 111.448 11.408C111.918 11.1413 112.451 11.008 113.048 11.008V13.36H112.456C111.752 13.36 111.219 13.5253 110.856 13.856C110.504 14.1867 110.328 14.7627 110.328 15.584V20H108.088V11.136H110.328V12.512ZM119.805 20L116.797 16.224V20H114.557V8.16H116.797V14.896L119.773 11.136H122.685L118.781 15.584L122.717 20H119.805ZM132.141 15.376C132.141 15.696 132.12 15.984 132.077 16.24H125.597C125.65 16.88 125.874 17.3813 126.269 17.744C126.664 18.1067 127.149 18.288 127.725 18.288C128.557 18.288 129.149 17.9307 129.501 17.216H131.917C131.661 18.0693 131.17 18.7733 130.445 19.328C129.72 19.872 128.829 20.144 127.773 20.144C126.92 20.144 126.152 19.9573 125.469 19.584C124.797 19.2 124.269 18.6613 123.885 17.968C123.512 17.2747 123.325 16.4747 123.325 15.568C123.325 14.6507 123.512 13.8453 123.885 13.152C124.258 12.4587 124.781 11.9253 125.453 11.552C126.125 11.1787 126.898 10.992 127.773 10.992C128.616 10.992 129.368 11.1733 130.029 11.536C130.701 11.8987 131.218 12.416 131.581 13.088C131.954 13.7493 132.141 14.512 132.141 15.376ZM129.821 14.736C129.81 14.16 129.602 13.7013 129.197 13.36C128.792 13.008 128.296 12.832 127.709 12.832C127.154 12.832 126.685 13.0027 126.301 13.344C125.928 13.6747 125.698 14.1387 125.613 14.736H129.821ZM137.168 20.144C136.443 20.144 135.792 20.016 135.216 19.76C134.64 19.4933 134.181 19.136 133.84 18.688C133.509 18.24 133.328 17.744 133.296 17.2H135.552C135.595 17.5413 135.76 17.824 136.048 18.048C136.347 18.272 136.715 18.384 137.152 18.384C137.579 18.384 137.909 18.2987 138.144 18.128C138.389 17.9573 138.512 17.7387 138.512 17.472C138.512 17.184 138.363 16.9707 138.064 16.832C137.776 16.6827 137.312 16.5227 136.672 16.352C136.011 16.192 135.467 16.0267 135.04 15.856C134.624 15.6853 134.261 15.424 133.952 15.072C133.653 14.72 133.504 14.2453 133.504 13.648C133.504 13.1573 133.643 12.7093 133.92 12.304C134.208 11.8987 134.613 11.5787 135.136 11.344C135.669 11.1093 136.293 10.992 137.008 10.992C138.064 10.992 138.907 11.2587 139.536 11.792C140.165 12.3147 140.512 13.024 140.576 13.92H138.432C138.4 13.568 138.251 13.2907 137.984 13.088C137.728 12.8747 137.381 12.768 136.944 12.768C136.539 12.768 136.224 12.8427 136 12.992C135.787 13.1413 135.68 13.3493 135.68 13.616C135.68 13.9147 135.829 14.144 136.128 14.304C136.427 14.4533 136.891 14.608 137.52 14.768C138.16 14.928 138.688 15.0933 139.104 15.264C139.52 15.4347 139.877 15.7013 140.176 16.064C140.485 16.416 140.645 16.8853 140.656 17.472C140.656 17.984 140.512 18.4427 140.224 18.848C139.947 19.2533 139.541 19.5733 139.008 19.808C138.485 20.032 137.872 20.144 137.168 20.144ZM141.919 15.536C141.919 14.64 142.095 13.8453 142.447 13.152C142.809 12.4587 143.295 11.9253 143.903 11.552C144.521 11.1787 145.209 10.992 145.967 10.992C146.628 10.992 147.204 11.1253 147.695 11.392C148.196 11.6587 148.596 11.9947 148.895 12.4V11.136H151.151V20H148.895V18.704C148.607 19.12 148.207 19.4667 147.695 19.744C147.193 20.0107 146.612 20.144 145.951 20.144C145.204 20.144 144.521 19.952 143.903 19.568C143.295 19.184 142.809 18.6453 142.447 17.952C142.095 17.248 141.919 16.4427 141.919 15.536ZM148.895 15.568C148.895 15.024 148.788 14.56 148.575 14.176C148.361 13.7813 148.073 13.4827 147.711 13.28C147.348 13.0667 146.959 12.96 146.543 12.96C146.127 12.96 145.743 13.0613 145.391 13.264C145.039 13.4667 144.751 13.7653 144.527 14.16C144.313 14.544 144.207 15.0027 144.207 15.536C144.207 16.0693 144.313 16.5387 144.527 16.944C144.751 17.3387 145.039 17.6427 145.391 17.856C145.753 18.0693 146.137 18.176 146.543 18.176C146.959 18.176 147.348 18.0747 147.711 17.872C148.073 17.6587 148.361 17.36 148.575 16.976C148.788 16.5813 148.895 16.112 148.895 15.568ZM158.25 11.008C159.306 11.008 160.16 11.344 160.81 12.016C161.461 12.6773 161.786 13.6053 161.786 14.8V20H159.546V15.104C159.546 14.4 159.37 13.8613 159.018 13.488C158.666 13.104 158.186 12.912 157.578 12.912C156.96 12.912 156.469 13.104 156.106 13.488C155.754 13.8613 155.578 14.4 155.578 15.104V20H153.338V11.136H155.578V12.24C155.877 11.856 156.256 11.5573 156.714 11.344C157.184 11.12 157.696 11.008 158.25 11.008Z" fill="#4B5563"/>
<path fill-rule="evenodd" clip-rule="evenodd" d="M10.6727 0.00714111L34.7586 27H15.2106L5.94434 16.6154V0.00714111H10.6727Z" fill="#FF477E"/>
<path d="M34.7589 27L21.6479 12.3038H34.7589V27Z" fill="#DA235A"/>
<path d="M5.94459 0.00750732L0 6.09506H5.94459V0.00750732Z" fill="#DA235A"/>
<path fill-rule="evenodd" clip-rule="evenodd" d="M34.7687 0L45.3599 12.3038H34.7687H21.6479L34.7687 0Z" fill="#FF477E"/>
</svg>
