<svg width="100" height="100" viewBox="0 0 100 100" fill="none" xmlns="http://www.w3.org/2000/svg">
<g clip-path="url(#clip0_706_22)">
<path fill-rule="evenodd" clip-rule="evenodd" d="M41.5923 45.2601V36.3721H43.5315C43.6577 36.3721 43.5464 36.3727 43.7495 36.5742L47.0145 40.2258C47.103 40.3143 47.122 40.3653 47.2073 40.4531C47.2998 40.5483 47.3227 40.5722 47.4051 40.6754L49.6806 43.2156C49.7724 43.3059 49.7922 43.3549 49.8741 43.4424L55.4008 49.6155C55.4817 49.7071 55.5013 49.7489 55.5951 49.8413L56.6211 51.013H46.6665C46.5697 50.8301 46.4889 50.8103 46.3709 50.6623L45.8986 50.1327C45.8256 50.0543 45.8151 50.0176 45.738 49.9378L43.3454 47.2561C43.2844 47.1869 43.2291 47.147 43.1681 47.0778L41.7441 45.4638C41.692 45.4031 41.5923 45.3466 41.5923 45.2601V45.2601ZM51.4499 43.5471H57.3321V50.1404L54.9482 47.4825C54.8709 47.3994 54.8557 47.3559 54.7713 47.2715C54.4505 46.951 53.9646 46.3372 53.6553 46.0282L52.5563 44.8001C52.4724 44.7159 52.4564 44.6718 52.3795 44.5891L51.4499 43.5471V43.5471ZM62.8589 42.4483H51.6115C51.7113 42.2993 51.8405 42.2189 51.9748 42.1006C52.1041 41.9868 52.2027 41.8628 52.3302 41.7449L55.1108 39.1604C55.1785 39.0952 55.2214 39.0485 55.2879 38.9819L57.7122 36.7175C57.9009 36.5193 57.8382 36.6396 58.2129 37.0427C58.9389 37.8236 59.9303 39.0546 60.701 39.9197L61.0248 40.307C61.0997 40.3876 61.1188 40.4177 61.1879 40.4994C61.4786 40.843 62.7038 42.2168 62.8589 42.4483V42.4483ZM40.4934 37.1801V38.8284H38.8774L40.4934 37.1801ZM50.2541 42.1897C50.1764 42.1377 50.1157 42.0768 50.0553 42.0006L46.367 37.8675C46.2856 37.7837 46.2718 37.7403 46.1905 37.6562C46.1062 37.5689 46.0592 37.5322 45.9878 37.4387L44.1425 35.3733C44.0919 35.313 44.113 35.2732 44.0163 35.2732H40.849C40.74 35.2732 39.8459 36.26 39.6935 36.4125L38.5623 37.576C38.2497 37.8886 37.8433 38.2427 37.5618 38.5794C37.3885 38.7868 36.3319 39.7772 36.2918 39.9273H40.4934V45.6803C40.4934 45.7632 40.5946 45.8299 40.6473 45.8819C40.903 46.1335 41.1084 46.4331 41.3573 46.6909C41.6719 47.0166 41.944 47.3705 42.2635 47.6916C42.5928 48.0223 43.1611 48.7268 43.5069 49.0984L44.7784 50.5096C45.0405 50.8491 45.3813 51.2097 45.6723 51.5225C45.7496 51.6054 45.7904 51.6348 45.8585 51.7241C45.9269 51.8136 45.9685 51.8425 46.0446 51.9258C46.1141 52.0019 46.1471 52.1119 46.2464 52.1119H58.431V43.5471H65.2182C65.1716 43.3724 64.71 42.9213 64.5671 42.7439L62.0593 39.8219C61.6109 39.3613 61.2337 38.8371 60.7985 38.3675L59.2789 36.5958C59.2504 36.5639 59.2406 36.5565 59.2149 36.5274L58.6943 35.9189C58.6902 35.914 58.6841 35.9067 58.6799 35.9018C58.6756 35.8968 58.6692 35.8897 58.6648 35.8848L58.633 35.851C58.543 35.7529 58.4812 35.6727 58.3912 35.5716C58.2365 35.398 58.1078 35.1768 57.9139 35.047C57.6585 35.218 57.2945 35.5946 57.0541 35.8307C57.0492 35.8355 57.0423 35.8421 57.0373 35.8469L50.2541 42.1897V42.1897Z" fill="white"/>
<path d="M29.1203 59.2371V62.7014C29.1203 63.1821 28.9813 63.5568 28.7032 63.8255C28.4251 64.0895 28.0528 64.2214 27.5861 64.2214C27.1148 64.2214 26.733 64.0847 26.4408 63.8114C26.1533 63.538 26.0095 63.1562 26.0095 62.666H26.9993C27.0041 62.8781 27.0535 63.0431 27.1478 63.1609C27.2468 63.2788 27.3882 63.3377 27.572 63.3377C27.7511 63.3377 27.8878 63.2811 27.9821 63.168C28.0763 63.0549 28.1235 62.8993 28.1235 62.7014V59.2371H29.1203ZM30.0204 62.1994C30.0204 61.8035 30.0982 61.4523 30.2537 61.146C30.414 60.8396 30.6285 60.6039 30.8971 60.439C31.1705 60.274 31.4745 60.1915 31.8091 60.1915C32.1014 60.1915 32.3559 60.2504 32.5727 60.3683C32.7942 60.4861 32.971 60.6346 33.103 60.8137V60.2552H34.0998V64.1719H33.103V63.5993C32.9757 63.7831 32.7989 63.9363 32.5727 64.0588C32.3512 64.1766 32.0943 64.2356 31.8021 64.2356C31.4721 64.2356 31.1705 64.1507 30.8971 63.981C30.6285 63.8114 30.414 63.5733 30.2537 63.267C30.0982 62.9559 30.0204 62.6 30.0204 62.1994ZM33.103 62.2135C33.103 61.9732 33.0558 61.7681 32.9616 61.5985C32.8673 61.4241 32.74 61.2921 32.5798 61.2025C32.4195 61.1083 32.2475 61.0611 32.0637 61.0611C31.8798 61.0611 31.7102 61.1059 31.5546 61.1955C31.3991 61.285 31.2718 61.417 31.1728 61.5914C31.0786 61.7611 31.0314 61.9637 31.0314 62.1994C31.0314 62.4351 31.0786 62.6425 31.1728 62.8216C31.2718 62.996 31.3991 63.1303 31.5546 63.2246C31.7149 63.3188 31.8846 63.366 32.0637 63.366C32.2475 63.366 32.4195 63.3212 32.5798 63.2316C32.74 63.1374 32.8673 63.0054 32.9616 62.8357C33.0558 62.6613 33.103 62.4539 33.103 62.2135ZM34.812 62.1994C34.812 61.8035 34.8898 61.4523 35.0453 61.146C35.2056 60.8396 35.4224 60.6039 35.6958 60.439C35.9691 60.274 36.2732 60.1915 36.6078 60.1915C36.8623 60.1915 37.1051 60.2481 37.336 60.3612C37.567 60.4696 37.7508 60.6157 37.8875 60.7995V58.9401H38.8914V64.1719H37.8875V63.5922C37.7649 63.7854 37.5929 63.941 37.3714 64.0588C37.1498 64.1766 36.893 64.2356 36.6007 64.2356C36.2708 64.2356 35.9691 64.1507 35.6958 63.981C35.4224 63.8114 35.2056 63.5733 35.0453 63.267C34.8898 62.9559 34.812 62.6 34.812 62.1994ZM37.8945 62.2135C37.8945 61.9732 37.8474 61.7681 37.7531 61.5985C37.6589 61.4241 37.5316 61.2921 37.3714 61.2025C37.2111 61.1083 37.0391 61.0611 36.8552 61.0611C36.6714 61.0611 36.5017 61.1059 36.3462 61.1955C36.1907 61.285 36.0634 61.417 35.9644 61.5914C35.8702 61.7611 35.823 61.9637 35.823 62.1994C35.823 62.4351 35.8702 62.6425 35.9644 62.8216C36.0634 62.996 36.1907 63.1303 36.3462 63.2246C36.5065 63.3188 36.6761 63.366 36.8552 63.366C37.0391 63.366 37.2111 63.3212 37.3714 63.2316C37.5316 63.1374 37.6589 63.0054 37.7531 62.8357C37.8474 62.6613 37.8945 62.4539 37.8945 62.2135ZM40.3601 59.7885C40.1857 59.7885 40.0396 59.7343 39.9218 59.6259C39.8086 59.5128 39.7521 59.3738 39.7521 59.2088C39.7521 59.0438 39.8086 58.9071 39.9218 58.7987C40.0396 58.6856 40.1857 58.6291 40.3601 58.6291C40.5345 58.6291 40.6782 58.6856 40.7914 58.7987C40.9092 58.9071 40.9681 59.0438 40.9681 59.2088C40.9681 59.3738 40.9092 59.5128 40.7914 59.6259C40.6782 59.7343 40.5345 59.7885 40.3601 59.7885ZM40.8479 60.2552V64.1719H39.8581V60.2552H40.8479ZM42.8156 60.8278C42.9429 60.6393 43.1173 60.4861 43.3388 60.3683C43.5651 60.2504 43.8219 60.1915 44.1095 60.1915C44.4441 60.1915 44.7458 60.274 45.0144 60.439C45.2878 60.6039 45.5022 60.8396 45.6578 61.146C45.818 61.4476 45.8982 61.7988 45.8982 62.1994C45.8982 62.6 45.818 62.9559 45.6578 63.267C45.5022 63.5733 45.2878 63.8114 45.0144 63.981C44.7458 64.1507 44.4441 64.2356 44.1095 64.2356C43.8172 64.2356 43.5604 64.179 43.3388 64.0659C43.122 63.9481 42.9476 63.7972 42.8156 63.6134V64.1719H41.8258V58.9401H42.8156V60.8278ZM44.8872 62.1994C44.8872 61.9637 44.8377 61.7611 44.7387 61.5914C44.6444 61.417 44.5172 61.285 44.3569 61.1955C44.2014 61.1059 44.0317 61.0611 43.8479 61.0611C43.6688 61.0611 43.4991 61.1083 43.3388 61.2025C43.1833 61.2921 43.056 61.4241 42.957 61.5985C42.8628 61.7728 42.8156 61.9779 42.8156 62.2135C42.8156 62.4492 42.8628 62.6542 42.957 62.8286C43.056 63.003 43.1833 63.1374 43.3388 63.2316C43.4991 63.3212 43.6688 63.366 43.8479 63.366C44.0317 63.366 44.2014 63.3188 44.3569 63.2246C44.5172 63.1303 44.6444 62.996 44.7387 62.8216C44.8377 62.6472 44.8872 62.4398 44.8872 62.1994ZM50.2585 62.1287C50.2585 62.2701 50.2491 62.3974 50.2302 62.5105H47.3668C47.3904 62.7933 47.4894 63.0148 47.6638 63.1751C47.8382 63.3353 48.0526 63.4154 48.3072 63.4154C48.6748 63.4154 48.9364 63.2575 49.0919 62.9418H50.1595C50.0464 63.3188 49.8296 63.6299 49.5091 63.875C49.1886 64.1154 48.795 64.2356 48.3284 64.2356C47.9513 64.2356 47.6119 64.1531 47.3103 63.9881C47.0133 63.8184 46.78 63.5804 46.6104 63.274C46.4454 62.9677 46.3629 62.6142 46.3629 62.2135C46.3629 61.8082 46.4454 61.4523 46.6104 61.146C46.7753 60.8396 47.0063 60.6039 47.3032 60.439C47.6002 60.274 47.9419 60.1915 48.3284 60.1915C48.7007 60.1915 49.033 60.2717 49.3252 60.4319C49.6222 60.5922 49.8508 60.8208 50.011 61.1177C50.176 61.4099 50.2585 61.7469 50.2585 62.1287ZM49.2333 61.8459C49.2286 61.5914 49.1367 61.3887 48.9576 61.2379C48.7785 61.0823 48.5593 61.0046 48.3001 61.0046C48.055 61.0046 47.8476 61.08 47.6779 61.2308C47.513 61.3769 47.4116 61.582 47.3739 61.8459H49.2333ZM51.9707 60.8632C52.098 60.6558 52.263 60.4932 52.4656 60.3753C52.673 60.2575 52.9087 60.1986 53.1726 60.1986V61.2379H52.9111C52.6 61.2379 52.3643 61.3109 52.2041 61.4571C52.0485 61.6032 51.9707 61.8577 51.9707 62.2206V64.1719H50.9809V60.2552H51.9707V60.8632ZM56.1583 64.1719L54.8291 62.5034V64.1719H53.8393V58.9401H54.8291V61.9166L56.1441 60.2552H57.4309L55.7058 62.2206L57.445 64.1719H56.1583ZM61.6091 62.1287C61.6091 62.2701 61.5997 62.3974 61.5809 62.5105H58.7175C58.7411 62.7933 58.8401 63.0148 59.0145 63.1751C59.1888 63.3353 59.4033 63.4154 59.6578 63.4154C60.0255 63.4154 60.2871 63.2575 60.4426 62.9418H61.5102C61.397 63.3188 61.1802 63.6299 60.8597 63.875C60.5392 64.1154 60.1457 64.2356 59.679 64.2356C59.302 64.2356 58.9626 64.1531 58.661 63.9881C58.364 63.8184 58.1307 63.5804 57.961 63.274C57.7961 62.9677 57.7136 62.6142 57.7136 62.2135C57.7136 61.8082 57.7961 61.4523 57.961 61.146C58.126 60.8396 58.3569 60.6039 58.6539 60.439C58.9508 60.274 59.2925 60.1915 59.679 60.1915C60.0514 60.1915 60.3837 60.2717 60.6759 60.4319C60.9728 60.5922 61.2014 60.8208 61.3617 61.1177C61.5267 61.4099 61.6091 61.7469 61.6091 62.1287ZM60.584 61.8459C60.5793 61.5914 60.4874 61.3887 60.3083 61.2379C60.1292 61.0823 59.91 61.0046 59.6508 61.0046C59.4057 61.0046 59.1983 61.08 59.0286 61.2308C58.8636 61.3769 58.7623 61.582 58.7246 61.8459H60.584ZM63.8304 64.2356C63.5099 64.2356 63.2224 64.179 62.9679 64.0659C62.7134 63.9481 62.5107 63.7902 62.3599 63.5922C62.2138 63.3942 62.1336 63.1751 62.1195 62.9347H63.1164C63.1352 63.0855 63.2083 63.2104 63.3355 63.3094C63.4675 63.4084 63.6301 63.4579 63.8234 63.4579C64.0119 63.4579 64.158 63.4202 64.2617 63.3447C64.3701 63.2693 64.4243 63.1727 64.4243 63.0549C64.4243 62.9276 64.3583 62.8333 64.2264 62.7721C64.0991 62.7061 63.8941 62.6354 63.6113 62.56C63.3191 62.4893 63.0787 62.4162 62.8901 62.3408C62.7063 62.2654 62.5461 62.1499 62.4094 61.9944C62.2774 61.8388 62.2114 61.6291 62.2114 61.3651C62.2114 61.1483 62.2727 60.9504 62.3952 60.7713C62.5225 60.5922 62.7016 60.4508 62.9326 60.3471C63.1682 60.2434 63.444 60.1915 63.7597 60.1915C64.2264 60.1915 64.5987 60.3094 64.8768 60.545C65.1549 60.776 65.3081 61.0894 65.3364 61.4853H64.389C64.3748 61.3298 64.3089 61.2072 64.191 61.1177C64.0779 61.0234 63.9247 60.9763 63.7315 60.9763C63.5524 60.9763 63.4133 61.0093 63.3143 61.0753C63.2201 61.1413 63.1729 61.2332 63.1729 61.351C63.1729 61.483 63.2389 61.5843 63.3709 61.655C63.5029 61.721 63.7079 61.7893 63.986 61.86C64.2688 61.9307 64.5021 62.0038 64.6859 62.0792C64.8697 62.1546 65.0276 62.2725 65.1596 62.4327C65.2963 62.5883 65.367 62.7956 65.3717 63.0549C65.3717 63.2811 65.3081 63.4838 65.1808 63.6629C65.0583 63.842 64.8792 63.9834 64.6435 64.0871C64.4125 64.1861 64.1415 64.2356 63.8304 64.2356ZM65.9297 62.1994C65.9297 61.8035 66.0075 61.4523 66.163 61.146C66.3232 60.8396 66.5377 60.6039 66.8064 60.439C67.0797 60.274 67.3837 60.1915 67.7184 60.1915C68.0106 60.1915 68.2651 60.2504 68.482 60.3683C68.7035 60.4861 68.8802 60.6346 69.0122 60.8137V60.2552H70.0091V64.1719H69.0122V63.5993C68.8849 63.7831 68.7082 63.9363 68.482 64.0588C68.2604 64.1766 68.0036 64.2356 67.7113 64.2356C67.3814 64.2356 67.0797 64.1507 66.8064 63.981C66.5377 63.8114 66.3232 63.5733 66.163 63.267C66.0075 62.9559 65.9297 62.6 65.9297 62.1994ZM69.0122 62.2135C69.0122 61.9732 68.9651 61.7681 68.8708 61.5985C68.7765 61.4241 68.6493 61.2921 68.489 61.2025C68.3288 61.1083 68.1567 61.0611 67.9729 61.0611C67.7891 61.0611 67.6194 61.1059 67.4639 61.1955C67.3083 61.285 67.1811 61.417 67.0821 61.5914C66.9878 61.7611 66.9407 61.9637 66.9407 62.1994C66.9407 62.4351 66.9878 62.6425 67.0821 62.8216C67.1811 62.996 67.3083 63.1303 67.4639 63.2246C67.6241 63.3188 67.7938 63.366 67.9729 63.366C68.1567 63.366 68.3288 63.3212 68.489 63.2316C68.6493 63.1374 68.7765 63.0054 68.8708 62.8357C68.9651 62.6613 69.0122 62.4539 69.0122 62.2135ZM73.1463 60.1986C73.6129 60.1986 73.99 60.3471 74.2775 60.644C74.565 60.9362 74.7087 61.3463 74.7087 61.8742V64.1719H73.7189V62.0085C73.7189 61.6974 73.6412 61.4594 73.4856 61.2944C73.3301 61.1248 73.118 61.0399 72.8493 61.0399C72.576 61.0399 72.3592 61.1248 72.1989 61.2944C72.0434 61.4594 71.9656 61.6974 71.9656 62.0085V64.1719H70.9758V60.2552H71.9656V60.743C72.0976 60.5733 72.2649 60.4413 72.4676 60.3471C72.6749 60.2481 72.9012 60.1986 73.1463 60.1986Z" fill="white"/>
<rect width="101" height="101" fill="#FF477E"/>
<path fill-rule="evenodd" clip-rule="evenodd" d="M38.8821 37.5067L61.1838 62.5H43.0838L34.504 52.8846V37.5067H38.8821Z" fill="white"/>
<path d="M61.1843 62.5L49.0446 48.8925H61.1843V62.5Z" fill="#DFDFDF"/>
<path d="M34.5043 37.507L29 43.1436H34.5043V37.507Z" fill="#DFDFDF"/>
<path fill-rule="evenodd" clip-rule="evenodd" d="M61.1934 37.5L71 48.8924H61.1934H49.0446L61.1934 37.5Z" fill="white"/>
</g>
<defs>
<clipPath id="clip0_706_22">
<rect width="100" height="100" rx="50" fill="white"/>
</clipPath>
</defs>
</svg>
